%TF.GenerationSoftware,KiCad,Pcbnew,8.0.8*%
%TF.CreationDate,2025-02-25T13:10:29+05:30*%
%TF.ProjectId,led_torch,6c65645f-746f-4726-9368-2e6b69636164,rev?*%
%TF.SameCoordinates,Original*%
%TF.FileFunction,Legend,Bot*%
%TF.FilePolarity,Positive*%
%FSLAX46Y46*%
G04 Gerber Fmt 4.6, Leading zero omitted, Abs format (unit mm)*
G04 Created by KiCad (PCBNEW 8.0.8) date 2025-02-25 13:10:29*
%MOMM*%
%LPD*%
G01*
G04 APERTURE LIST*
%ADD10C,0.300000*%
%ADD11C,0.000000*%
%ADD12C,0.010000*%
G04 APERTURE END LIST*
D10*
X155464285Y-143006900D02*
X155250000Y-143078328D01*
X155250000Y-143078328D02*
X154892857Y-143078328D01*
X154892857Y-143078328D02*
X154750000Y-143006900D01*
X154750000Y-143006900D02*
X154678571Y-142935471D01*
X154678571Y-142935471D02*
X154607142Y-142792614D01*
X154607142Y-142792614D02*
X154607142Y-142649757D01*
X154607142Y-142649757D02*
X154678571Y-142506900D01*
X154678571Y-142506900D02*
X154750000Y-142435471D01*
X154750000Y-142435471D02*
X154892857Y-142364042D01*
X154892857Y-142364042D02*
X155178571Y-142292614D01*
X155178571Y-142292614D02*
X155321428Y-142221185D01*
X155321428Y-142221185D02*
X155392857Y-142149757D01*
X155392857Y-142149757D02*
X155464285Y-142006900D01*
X155464285Y-142006900D02*
X155464285Y-141864042D01*
X155464285Y-141864042D02*
X155392857Y-141721185D01*
X155392857Y-141721185D02*
X155321428Y-141649757D01*
X155321428Y-141649757D02*
X155178571Y-141578328D01*
X155178571Y-141578328D02*
X154821428Y-141578328D01*
X154821428Y-141578328D02*
X154607142Y-141649757D01*
X153964286Y-142078328D02*
X153964286Y-143578328D01*
X153964286Y-142149757D02*
X153821429Y-142078328D01*
X153821429Y-142078328D02*
X153535714Y-142078328D01*
X153535714Y-142078328D02*
X153392857Y-142149757D01*
X153392857Y-142149757D02*
X153321429Y-142221185D01*
X153321429Y-142221185D02*
X153250000Y-142364042D01*
X153250000Y-142364042D02*
X153250000Y-142792614D01*
X153250000Y-142792614D02*
X153321429Y-142935471D01*
X153321429Y-142935471D02*
X153392857Y-143006900D01*
X153392857Y-143006900D02*
X153535714Y-143078328D01*
X153535714Y-143078328D02*
X153821429Y-143078328D01*
X153821429Y-143078328D02*
X153964286Y-143006900D01*
X151964286Y-143078328D02*
X151964286Y-142292614D01*
X151964286Y-142292614D02*
X152035714Y-142149757D01*
X152035714Y-142149757D02*
X152178571Y-142078328D01*
X152178571Y-142078328D02*
X152464286Y-142078328D01*
X152464286Y-142078328D02*
X152607143Y-142149757D01*
X151964286Y-143006900D02*
X152107143Y-143078328D01*
X152107143Y-143078328D02*
X152464286Y-143078328D01*
X152464286Y-143078328D02*
X152607143Y-143006900D01*
X152607143Y-143006900D02*
X152678571Y-142864042D01*
X152678571Y-142864042D02*
X152678571Y-142721185D01*
X152678571Y-142721185D02*
X152607143Y-142578328D01*
X152607143Y-142578328D02*
X152464286Y-142506900D01*
X152464286Y-142506900D02*
X152107143Y-142506900D01*
X152107143Y-142506900D02*
X151964286Y-142435471D01*
X151250000Y-143078328D02*
X151250000Y-142078328D01*
X151250000Y-142364042D02*
X151178571Y-142221185D01*
X151178571Y-142221185D02*
X151107143Y-142149757D01*
X151107143Y-142149757D02*
X150964285Y-142078328D01*
X150964285Y-142078328D02*
X150821428Y-142078328D01*
X150321429Y-143078328D02*
X150321429Y-141578328D01*
X150178572Y-142506900D02*
X149750000Y-143078328D01*
X149750000Y-142078328D02*
X150321429Y-142649757D01*
X149178571Y-143006900D02*
X149035714Y-143078328D01*
X149035714Y-143078328D02*
X148750000Y-143078328D01*
X148750000Y-143078328D02*
X148607143Y-143006900D01*
X148607143Y-143006900D02*
X148535714Y-142864042D01*
X148535714Y-142864042D02*
X148535714Y-142792614D01*
X148535714Y-142792614D02*
X148607143Y-142649757D01*
X148607143Y-142649757D02*
X148750000Y-142578328D01*
X148750000Y-142578328D02*
X148964286Y-142578328D01*
X148964286Y-142578328D02*
X149107143Y-142506900D01*
X149107143Y-142506900D02*
X149178571Y-142364042D01*
X149178571Y-142364042D02*
X149178571Y-142292614D01*
X149178571Y-142292614D02*
X149107143Y-142149757D01*
X149107143Y-142149757D02*
X148964286Y-142078328D01*
X148964286Y-142078328D02*
X148750000Y-142078328D01*
X148750000Y-142078328D02*
X148607143Y-142149757D01*
D11*
%TO.C,Sparks*%
G36*
X161126017Y-139247116D02*
G01*
X161046235Y-139401483D01*
X160951046Y-139565184D01*
X160851676Y-139718122D01*
X160850921Y-139719284D01*
X160756330Y-139844849D01*
X160542848Y-140069585D01*
X160213154Y-140326840D01*
X159853896Y-140515574D01*
X159472397Y-140633729D01*
X159075984Y-140679247D01*
X158671982Y-140650070D01*
X158267715Y-140544139D01*
X158261897Y-140542035D01*
X158010560Y-140435994D01*
X157797391Y-140307885D01*
X157755845Y-140274189D01*
X158202469Y-140274189D01*
X158215908Y-140298796D01*
X158285906Y-140342712D01*
X158397352Y-140388473D01*
X158407103Y-140391701D01*
X158564212Y-140429168D01*
X158766369Y-140458619D01*
X158982087Y-140475374D01*
X159034248Y-140477400D01*
X159215110Y-140479720D01*
X159354150Y-140469135D01*
X159481185Y-140441889D01*
X159626034Y-140394224D01*
X159777147Y-140334087D01*
X160140147Y-140135894D01*
X160449041Y-139882428D01*
X160613347Y-139718122D01*
X160460412Y-139684517D01*
X160384694Y-139674477D01*
X160236541Y-139666589D01*
X160051346Y-139664566D01*
X159852492Y-139669005D01*
X159649593Y-139680128D01*
X159442827Y-139702813D01*
X159260091Y-139739876D01*
X159070858Y-139796287D01*
X159015845Y-139815682D01*
X158845546Y-139885418D01*
X158667565Y-139969700D01*
X158498085Y-140059624D01*
X158353288Y-140146283D01*
X158249355Y-140220774D01*
X158202469Y-140274189D01*
X157755845Y-140274189D01*
X157583559Y-140134457D01*
X157470857Y-140033302D01*
X157253449Y-140270685D01*
X157241041Y-140284381D01*
X157128575Y-140419552D01*
X157012545Y-140575212D01*
X156903659Y-140734994D01*
X156812625Y-140882532D01*
X156750151Y-141001457D01*
X156726947Y-141075403D01*
X156735964Y-141124442D01*
X156764890Y-141229183D01*
X156806824Y-141360917D01*
X156851244Y-141502524D01*
X156959935Y-141996270D01*
X157006065Y-142504740D01*
X157005167Y-142532839D01*
X156989856Y-143011862D01*
X156911525Y-143501562D01*
X156771294Y-143957770D01*
X156692137Y-144158595D01*
X156792157Y-144446204D01*
X156844657Y-144616598D01*
X156888838Y-144796309D01*
X156913658Y-144941930D01*
X156919857Y-145010167D01*
X156919564Y-145039229D01*
X156918821Y-145112845D01*
X156891467Y-145184199D01*
X156829283Y-145255903D01*
X156819319Y-145265574D01*
X156731754Y-145327818D01*
X156663787Y-145338871D01*
X156634609Y-145332420D01*
X156628317Y-145355095D01*
X156634534Y-145365981D01*
X156634361Y-145390564D01*
X156584891Y-145382174D01*
X156475327Y-145339726D01*
X156443730Y-145324897D01*
X156336636Y-145233571D01*
X156280798Y-145096631D01*
X156279952Y-145063823D01*
X156431061Y-145063823D01*
X156451631Y-145139006D01*
X156535065Y-145188104D01*
X156640850Y-145187759D01*
X156727405Y-145136489D01*
X156731646Y-145130835D01*
X156756996Y-145039229D01*
X156752441Y-144900678D01*
X156720557Y-144738012D01*
X156663922Y-144574060D01*
X156599162Y-144424891D01*
X156546585Y-144543582D01*
X156515674Y-144620461D01*
X156466605Y-144782463D01*
X156437226Y-144937613D01*
X156431061Y-145063823D01*
X156279952Y-145063823D01*
X156275989Y-144910221D01*
X156321982Y-144670482D01*
X156418551Y-144373559D01*
X156453031Y-144276588D01*
X156474790Y-144183270D01*
X156468440Y-144105803D01*
X156435525Y-144011198D01*
X156353445Y-143769460D01*
X156274008Y-143451265D01*
X156215015Y-143116253D01*
X156183287Y-142797252D01*
X156179475Y-142684490D01*
X156180741Y-142657888D01*
X156371392Y-142657888D01*
X156380383Y-142885853D01*
X156407227Y-143158073D01*
X156446784Y-143402959D01*
X156464014Y-143483486D01*
X156501838Y-143642999D01*
X156536491Y-143768514D01*
X156562174Y-143838161D01*
X156588919Y-143877161D01*
X156614148Y-143868522D01*
X156647468Y-143792791D01*
X156721636Y-143551064D01*
X156785593Y-143224811D01*
X156823372Y-142875816D01*
X156832019Y-142532839D01*
X156808578Y-142224640D01*
X156787664Y-142089237D01*
X156749320Y-141877367D01*
X156708651Y-141688503D01*
X156669039Y-141536475D01*
X156633866Y-141435115D01*
X156606514Y-141398255D01*
X156582688Y-141413213D01*
X156542109Y-141492729D01*
X156500632Y-141628382D01*
X156460875Y-141806151D01*
X156425454Y-142012009D01*
X156396989Y-142231934D01*
X156378095Y-142451902D01*
X156371392Y-142657888D01*
X156180741Y-142657888D01*
X156200901Y-142234359D01*
X156275212Y-141777480D01*
X156397107Y-141349741D01*
X156420519Y-141283926D01*
X156458205Y-141166505D01*
X156470493Y-141088654D01*
X156459165Y-141025983D01*
X156426002Y-140954102D01*
X156332827Y-140792389D01*
X156198668Y-140589777D01*
X156049802Y-140386806D01*
X155906925Y-140213024D01*
X155749886Y-140036671D01*
X155476812Y-140236779D01*
X155407050Y-140284321D01*
X155374868Y-140306253D01*
X155131016Y-140444424D01*
X154887227Y-140551144D01*
X154843780Y-140566624D01*
X154683243Y-140617464D01*
X154539563Y-140647300D01*
X154380816Y-140661201D01*
X154175078Y-140664239D01*
X153806907Y-140636991D01*
X153432755Y-140543643D01*
X153081137Y-140379750D01*
X152740291Y-140141023D01*
X152678432Y-140086522D01*
X152548038Y-139950430D01*
X152416451Y-139789514D01*
X152352630Y-139701064D01*
X152609804Y-139701064D01*
X152689593Y-139813117D01*
X152714444Y-139844201D01*
X152831079Y-139953900D01*
X152993080Y-140075478D01*
X153179525Y-140195173D01*
X153369491Y-140299222D01*
X153542056Y-140373862D01*
X153848325Y-140450317D01*
X154212459Y-140474423D01*
X154579403Y-140434896D01*
X154926791Y-140332404D01*
X155045483Y-140284321D01*
X154946573Y-140203793D01*
X154935058Y-140194705D01*
X154809196Y-140112344D01*
X154635008Y-140016939D01*
X154435883Y-139919964D01*
X154235213Y-139832889D01*
X154056386Y-139767186D01*
X153985953Y-139748210D01*
X153802960Y-139714780D01*
X153579510Y-139687520D01*
X153339246Y-139668121D01*
X153105814Y-139658275D01*
X152902857Y-139659674D01*
X152754020Y-139674009D01*
X152609804Y-139701064D01*
X152352630Y-139701064D01*
X152291187Y-139615910D01*
X152179764Y-139441757D01*
X152089698Y-139279193D01*
X152028505Y-139140356D01*
X152023772Y-139120706D01*
X152265451Y-139120706D01*
X152266954Y-139138249D01*
X152293116Y-139209949D01*
X152340910Y-139315294D01*
X152429209Y-139497041D01*
X152965851Y-139472686D01*
X153350056Y-139468686D01*
X153760737Y-139504098D01*
X154136078Y-139587209D01*
X154494000Y-139722205D01*
X154852420Y-139913269D01*
X154973855Y-139987733D01*
X155089888Y-140060922D01*
X155164174Y-140110161D01*
X155180857Y-140121487D01*
X155234480Y-140141723D01*
X155295485Y-140123287D01*
X155390653Y-140060281D01*
X155433392Y-140027558D01*
X155508730Y-139957176D01*
X155539018Y-139908236D01*
X155538052Y-139898588D01*
X155523228Y-139875531D01*
X155896106Y-139875531D01*
X155896747Y-139878353D01*
X155916149Y-139908236D01*
X155927904Y-139926341D01*
X155996570Y-140014263D01*
X156089820Y-140125445D01*
X156192160Y-140251135D01*
X156327230Y-140432466D01*
X156441329Y-140601183D01*
X156599123Y-140852553D01*
X156782694Y-140568781D01*
X156791979Y-140554532D01*
X156907661Y-140388778D01*
X157034521Y-140223352D01*
X157146725Y-140092083D01*
X157327184Y-139899157D01*
X157321722Y-139891219D01*
X157636916Y-139891219D01*
X157640308Y-139899157D01*
X157644916Y-139909941D01*
X157697998Y-139971840D01*
X157784404Y-140050204D01*
X157834348Y-140090237D01*
X157912651Y-140147547D01*
X157952550Y-140168731D01*
X157961886Y-140164567D01*
X158023994Y-140127563D01*
X158128714Y-140060765D01*
X158259743Y-139974486D01*
X158359174Y-139910572D01*
X158767298Y-139698277D01*
X159195301Y-139556076D01*
X159652753Y-139481422D01*
X160149221Y-139471771D01*
X160334016Y-139481258D01*
X160500155Y-139493013D01*
X160623248Y-139505263D01*
X160685274Y-139516504D01*
X160703882Y-139520431D01*
X160763163Y-139488531D01*
X160833639Y-139386185D01*
X160855989Y-139344467D01*
X160902286Y-139241603D01*
X160920716Y-139173199D01*
X160920604Y-139170777D01*
X160879444Y-139128530D01*
X160773012Y-139092616D01*
X160614275Y-139063772D01*
X160416198Y-139042736D01*
X160191750Y-139030245D01*
X159953897Y-139027036D01*
X159715605Y-139033846D01*
X159489842Y-139051411D01*
X159289574Y-139080471D01*
X159273146Y-139083707D01*
X159083309Y-139129683D01*
X158868720Y-139193163D01*
X158672733Y-139261430D01*
X158563576Y-139308190D01*
X158401891Y-139388082D01*
X158226596Y-139483321D01*
X158051717Y-139585378D01*
X157891282Y-139685725D01*
X157759319Y-139775834D01*
X157669854Y-139847175D01*
X157636916Y-139891219D01*
X157321722Y-139891219D01*
X157198397Y-139711972D01*
X157069610Y-139524786D01*
X156835247Y-139774127D01*
X156600884Y-140023468D01*
X156371513Y-139771220D01*
X156326333Y-139722253D01*
X156228927Y-139622106D01*
X156157950Y-139556856D01*
X156126324Y-139538754D01*
X156118178Y-139549010D01*
X156043702Y-139647675D01*
X155971784Y-139749730D01*
X155917545Y-139833055D01*
X155896106Y-139875531D01*
X155523228Y-139875531D01*
X155493144Y-139828739D01*
X155390373Y-139737048D01*
X155242342Y-139631400D01*
X155061659Y-139519678D01*
X154860929Y-139409769D01*
X154652758Y-139309555D01*
X154449750Y-139226923D01*
X154217498Y-139151492D01*
X153714250Y-139046582D01*
X153185981Y-139014310D01*
X153128294Y-139015326D01*
X152956755Y-139023684D01*
X152771609Y-139038579D01*
X152591380Y-139057870D01*
X152434595Y-139079416D01*
X152319776Y-139101075D01*
X152265451Y-139120706D01*
X152023772Y-139120706D01*
X152003702Y-139037383D01*
X152022806Y-138982413D01*
X152027611Y-138979831D01*
X152101416Y-138956673D01*
X152232763Y-138926841D01*
X152403393Y-138893703D01*
X152595045Y-138860624D01*
X152789460Y-138830969D01*
X152968380Y-138808105D01*
X152985906Y-138806328D01*
X153188420Y-138801292D01*
X153439357Y-138815688D01*
X153713889Y-138846771D01*
X153987187Y-138891797D01*
X154234423Y-138948024D01*
X154360449Y-138986077D01*
X154651974Y-139097356D01*
X154955415Y-139239115D01*
X155240807Y-139396717D01*
X155478184Y-139555526D01*
X155546353Y-139606185D01*
X155653727Y-139676473D01*
X155722647Y-139702234D01*
X155766464Y-139689679D01*
X155768001Y-139688390D01*
X155848868Y-139590903D01*
X155939054Y-139436223D01*
X156030629Y-139243935D01*
X156115660Y-139033622D01*
X156186217Y-138824869D01*
X156234368Y-138637259D01*
X156252180Y-138490377D01*
X156251871Y-138470093D01*
X156236778Y-138388597D01*
X156188093Y-138340662D01*
X156090797Y-138317988D01*
X155929868Y-138312274D01*
X155732718Y-138312274D01*
X155843300Y-138158435D01*
X155917552Y-138076140D01*
X156198161Y-138076140D01*
X156219042Y-138110027D01*
X156299526Y-138167744D01*
X156314820Y-138178188D01*
X156390116Y-138243604D01*
X156427103Y-138322521D01*
X156442501Y-138447677D01*
X156443548Y-138503194D01*
X156417253Y-138718480D01*
X156346770Y-138991920D01*
X156238755Y-139344042D01*
X156411961Y-139520525D01*
X156495613Y-139603015D01*
X156570624Y-139670935D01*
X156608255Y-139697009D01*
X156637114Y-139678268D01*
X156707207Y-139616136D01*
X156799594Y-139525575D01*
X156967843Y-139354142D01*
X156870767Y-139056756D01*
X156806824Y-138842174D01*
X156750111Y-138568654D01*
X156741596Y-138356091D01*
X156781173Y-138203482D01*
X156843138Y-138083655D01*
X156668613Y-138039709D01*
X156644987Y-138033864D01*
X156473448Y-138001605D01*
X156348435Y-138002966D01*
X156247470Y-138037848D01*
X156229532Y-138047739D01*
X156198161Y-138076140D01*
X155917552Y-138076140D01*
X156019686Y-137962943D01*
X156216656Y-137841335D01*
X156432219Y-137796577D01*
X156666569Y-137828593D01*
X156690761Y-137835162D01*
X156868200Y-137864143D01*
X157030210Y-137862529D01*
X157135744Y-137853343D01*
X157193458Y-137868560D01*
X157221194Y-137915687D01*
X157223731Y-137958341D01*
X157184077Y-138040110D01*
X157085045Y-138151995D01*
X157019760Y-138223392D01*
X156951609Y-138316940D01*
X156925453Y-138381511D01*
X156946462Y-138564727D01*
X157002508Y-138793858D01*
X157084585Y-139040992D01*
X157183713Y-139282003D01*
X157220406Y-139354142D01*
X157290915Y-139492761D01*
X157397210Y-139649140D01*
X157474130Y-139739744D01*
X157723669Y-139555794D01*
X157995108Y-139375333D01*
X158420915Y-139152698D01*
X158870120Y-138979766D01*
X159315755Y-138868185D01*
X159476087Y-138846110D01*
X159707416Y-138829858D01*
X159957170Y-138825939D01*
X160213161Y-138833197D01*
X160463204Y-138850476D01*
X160695112Y-138876619D01*
X160896698Y-138910471D01*
X161055777Y-138950876D01*
X161160161Y-138996677D01*
X161197663Y-139046718D01*
X161179923Y-139121018D01*
X161157616Y-139173199D01*
X161126017Y-139247116D01*
G37*
D12*
%TO.C,REF\u002A\u002A*%
X152065406Y-135034949D02*
X152091127Y-135050647D01*
X152117778Y-135072227D01*
X152117778Y-135719684D01*
X152091127Y-135741264D01*
X152059767Y-135758739D01*
X152023966Y-135759575D01*
X151992528Y-135739082D01*
X151988652Y-135734416D01*
X151983186Y-135724949D01*
X151978979Y-135711267D01*
X151975867Y-135690748D01*
X151973687Y-135660768D01*
X151972276Y-135618704D01*
X151971471Y-135561932D01*
X151971107Y-135487830D01*
X151971022Y-135393773D01*
X151971022Y-135072227D01*
X151997673Y-135050647D01*
X152021386Y-135035877D01*
X152044400Y-135029067D01*
X152065406Y-135034949D01*
G36*
X152065406Y-135034949D02*
G01*
X152091127Y-135050647D01*
X152117778Y-135072227D01*
X152117778Y-135719684D01*
X152091127Y-135741264D01*
X152059767Y-135758739D01*
X152023966Y-135759575D01*
X151992528Y-135739082D01*
X151988652Y-135734416D01*
X151983186Y-135724949D01*
X151978979Y-135711267D01*
X151975867Y-135690748D01*
X151973687Y-135660768D01*
X151972276Y-135618704D01*
X151971471Y-135561932D01*
X151971107Y-135487830D01*
X151971022Y-135393773D01*
X151971022Y-135072227D01*
X151997673Y-135050647D01*
X152021386Y-135035877D01*
X152044400Y-135029067D01*
X152065406Y-135034949D01*
G37*
X159196137Y-135033463D02*
X159230291Y-135056776D01*
X159258000Y-135084485D01*
X159258000Y-135397537D01*
X159257959Y-135481567D01*
X159257701Y-135555789D01*
X159257030Y-135612541D01*
X159255752Y-135654512D01*
X159253673Y-135684389D01*
X159250599Y-135704861D01*
X159246334Y-135718614D01*
X159240684Y-135728337D01*
X159233455Y-135736717D01*
X159201991Y-135758181D01*
X159166826Y-135759947D01*
X159133822Y-135740267D01*
X159128516Y-135734398D01*
X159123066Y-135725314D01*
X159118900Y-135711973D01*
X159115846Y-135691757D01*
X159113732Y-135662049D01*
X159112386Y-135620232D01*
X159111638Y-135563689D01*
X159111314Y-135489802D01*
X159111245Y-135395956D01*
X159111284Y-135320294D01*
X159111539Y-135242385D01*
X159112183Y-135182375D01*
X159113387Y-135137648D01*
X159115324Y-135105585D01*
X159118164Y-135083571D01*
X159122079Y-135068987D01*
X159127242Y-135059218D01*
X159133822Y-135051645D01*
X159163006Y-135032623D01*
X159196137Y-135033463D01*
G36*
X159196137Y-135033463D02*
G01*
X159230291Y-135056776D01*
X159258000Y-135084485D01*
X159258000Y-135397537D01*
X159257959Y-135481567D01*
X159257701Y-135555789D01*
X159257030Y-135612541D01*
X159255752Y-135654512D01*
X159253673Y-135684389D01*
X159250599Y-135704861D01*
X159246334Y-135718614D01*
X159240684Y-135728337D01*
X159233455Y-135736717D01*
X159201991Y-135758181D01*
X159166826Y-135759947D01*
X159133822Y-135740267D01*
X159128516Y-135734398D01*
X159123066Y-135725314D01*
X159118900Y-135711973D01*
X159115846Y-135691757D01*
X159113732Y-135662049D01*
X159112386Y-135620232D01*
X159111638Y-135563689D01*
X159111314Y-135489802D01*
X159111245Y-135395956D01*
X159111284Y-135320294D01*
X159111539Y-135242385D01*
X159112183Y-135182375D01*
X159113387Y-135137648D01*
X159115324Y-135105585D01*
X159118164Y-135083571D01*
X159122079Y-135068987D01*
X159127242Y-135059218D01*
X159133822Y-135051645D01*
X159163006Y-135032623D01*
X159196137Y-135033463D01*
G37*
X158664562Y-129792850D02*
X158747313Y-129820053D01*
X158822406Y-129865484D01*
X158894298Y-129931302D01*
X158932846Y-129975567D01*
X158972256Y-130033961D01*
X158997446Y-130094586D01*
X159010861Y-130163865D01*
X159014948Y-130248222D01*
X159014669Y-130294307D01*
X159012460Y-130335450D01*
X159006894Y-130367582D01*
X158996586Y-130398122D01*
X158980148Y-130434489D01*
X158966200Y-130461728D01*
X158907665Y-130547429D01*
X158835619Y-130616617D01*
X158751947Y-130667741D01*
X158658531Y-130699250D01*
X158625434Y-130706225D01*
X158584960Y-130713094D01*
X158551999Y-130714919D01*
X158517698Y-130711947D01*
X158473200Y-130704426D01*
X158421934Y-130692002D01*
X158331434Y-130654112D01*
X158252345Y-130599836D01*
X158186528Y-130531770D01*
X158135840Y-130452511D01*
X158102140Y-130364654D01*
X158087286Y-130270795D01*
X158093136Y-130173530D01*
X158119399Y-130077220D01*
X158164418Y-129988494D01*
X158225373Y-129913419D01*
X158300184Y-129853641D01*
X158386768Y-129810809D01*
X158483043Y-129786571D01*
X158586928Y-129782576D01*
X158664562Y-129792850D01*
G36*
X158664562Y-129792850D02*
G01*
X158747313Y-129820053D01*
X158822406Y-129865484D01*
X158894298Y-129931302D01*
X158932846Y-129975567D01*
X158972256Y-130033961D01*
X158997446Y-130094586D01*
X159010861Y-130163865D01*
X159014948Y-130248222D01*
X159014669Y-130294307D01*
X159012460Y-130335450D01*
X159006894Y-130367582D01*
X158996586Y-130398122D01*
X158980148Y-130434489D01*
X158966200Y-130461728D01*
X158907665Y-130547429D01*
X158835619Y-130616617D01*
X158751947Y-130667741D01*
X158658531Y-130699250D01*
X158625434Y-130706225D01*
X158584960Y-130713094D01*
X158551999Y-130714919D01*
X158517698Y-130711947D01*
X158473200Y-130704426D01*
X158421934Y-130692002D01*
X158331434Y-130654112D01*
X158252345Y-130599836D01*
X158186528Y-130531770D01*
X158135840Y-130452511D01*
X158102140Y-130364654D01*
X158087286Y-130270795D01*
X158093136Y-130173530D01*
X158119399Y-130077220D01*
X158164418Y-129988494D01*
X158225373Y-129913419D01*
X158300184Y-129853641D01*
X158386768Y-129810809D01*
X158483043Y-129786571D01*
X158586928Y-129782576D01*
X158664562Y-129792850D01*
G37*
X151365767Y-135029068D02*
X151459890Y-135029158D01*
X151534405Y-135029498D01*
X151591811Y-135030239D01*
X151634611Y-135031535D01*
X151665304Y-135033537D01*
X151686391Y-135036396D01*
X151700373Y-135040266D01*
X151709750Y-135045298D01*
X151717022Y-135051645D01*
X151735828Y-135084362D01*
X151737275Y-135121939D01*
X151720917Y-135155178D01*
X151719557Y-135156631D01*
X151708354Y-135164992D01*
X151691252Y-135170547D01*
X151664082Y-135173840D01*
X151622678Y-135175418D01*
X151562873Y-135175822D01*
X151423511Y-135175822D01*
X151423511Y-135439589D01*
X151423436Y-135515417D01*
X151423028Y-135582083D01*
X151422046Y-135631867D01*
X151420250Y-135667784D01*
X151417399Y-135692850D01*
X151413253Y-135710081D01*
X151407571Y-135722492D01*
X151400114Y-135733100D01*
X151397824Y-135735906D01*
X151366646Y-135758548D01*
X151332266Y-135760112D01*
X151299334Y-135740267D01*
X151292355Y-135732191D01*
X151286883Y-135721593D01*
X151282863Y-135705749D01*
X151280072Y-135681773D01*
X151278288Y-135646774D01*
X151277289Y-135597864D01*
X151276852Y-135532154D01*
X151276756Y-135446756D01*
X151276756Y-135175822D01*
X151130820Y-135175822D01*
X151119720Y-135175821D01*
X151063202Y-135175596D01*
X151024358Y-135174457D01*
X150998965Y-135171657D01*
X150982804Y-135166450D01*
X150971652Y-135158089D01*
X150961289Y-135145826D01*
X150945441Y-135115138D01*
X150948543Y-135081358D01*
X150974187Y-135048822D01*
X150979129Y-135045105D01*
X150989338Y-135040269D01*
X151004764Y-135036506D01*
X151027886Y-135033683D01*
X151061183Y-135031670D01*
X151107137Y-135030333D01*
X151168228Y-135029542D01*
X151246935Y-135029163D01*
X151345740Y-135029067D01*
X151365767Y-135029068D01*
G36*
X151365767Y-135029068D02*
G01*
X151459890Y-135029158D01*
X151534405Y-135029498D01*
X151591811Y-135030239D01*
X151634611Y-135031535D01*
X151665304Y-135033537D01*
X151686391Y-135036396D01*
X151700373Y-135040266D01*
X151709750Y-135045298D01*
X151717022Y-135051645D01*
X151735828Y-135084362D01*
X151737275Y-135121939D01*
X151720917Y-135155178D01*
X151719557Y-135156631D01*
X151708354Y-135164992D01*
X151691252Y-135170547D01*
X151664082Y-135173840D01*
X151622678Y-135175418D01*
X151562873Y-135175822D01*
X151423511Y-135175822D01*
X151423511Y-135439589D01*
X151423436Y-135515417D01*
X151423028Y-135582083D01*
X151422046Y-135631867D01*
X151420250Y-135667784D01*
X151417399Y-135692850D01*
X151413253Y-135710081D01*
X151407571Y-135722492D01*
X151400114Y-135733100D01*
X151397824Y-135735906D01*
X151366646Y-135758548D01*
X151332266Y-135760112D01*
X151299334Y-135740267D01*
X151292355Y-135732191D01*
X151286883Y-135721593D01*
X151282863Y-135705749D01*
X151280072Y-135681773D01*
X151278288Y-135646774D01*
X151277289Y-135597864D01*
X151276852Y-135532154D01*
X151276756Y-135446756D01*
X151276756Y-135175822D01*
X151130820Y-135175822D01*
X151119720Y-135175821D01*
X151063202Y-135175596D01*
X151024358Y-135174457D01*
X150998965Y-135171657D01*
X150982804Y-135166450D01*
X150971652Y-135158089D01*
X150961289Y-135145826D01*
X150945441Y-135115138D01*
X150948543Y-135081358D01*
X150974187Y-135048822D01*
X150979129Y-135045105D01*
X150989338Y-135040269D01*
X151004764Y-135036506D01*
X151027886Y-135033683D01*
X151061183Y-135031670D01*
X151107137Y-135030333D01*
X151168228Y-135029542D01*
X151246935Y-135029163D01*
X151345740Y-135029067D01*
X151365767Y-135029068D01*
G37*
X150689734Y-135051645D02*
X150695366Y-135057835D01*
X150700456Y-135066041D01*
X150704543Y-135077817D01*
X150707721Y-135095276D01*
X150710087Y-135120530D01*
X150711738Y-135155690D01*
X150712769Y-135202869D01*
X150713277Y-135264177D01*
X150713359Y-135341727D01*
X150713109Y-135437631D01*
X150712625Y-135554000D01*
X150712557Y-135568175D01*
X150711971Y-135629937D01*
X150710648Y-135673620D01*
X150708103Y-135703001D01*
X150703848Y-135721855D01*
X150697396Y-135733959D01*
X150688262Y-135743089D01*
X150654804Y-135760506D01*
X150619856Y-135757604D01*
X150588953Y-135733100D01*
X150579944Y-135719897D01*
X150572492Y-135701361D01*
X150568124Y-135675333D01*
X150566069Y-135636787D01*
X150565556Y-135580700D01*
X150565556Y-135458045D01*
X150068845Y-135458045D01*
X150068845Y-135592871D01*
X150068772Y-135628662D01*
X150068009Y-135674992D01*
X150065833Y-135705526D01*
X150061536Y-135724557D01*
X150054412Y-135736374D01*
X150043755Y-135745271D01*
X150011504Y-135760341D01*
X149976217Y-135757673D01*
X149945486Y-135733100D01*
X149940831Y-135726845D01*
X149934895Y-135716321D01*
X149930364Y-135702391D01*
X149927048Y-135682317D01*
X149924759Y-135653360D01*
X149923308Y-135612780D01*
X149922505Y-135557840D01*
X149922162Y-135485799D01*
X149922089Y-135393920D01*
X149922089Y-135084485D01*
X149949798Y-135056776D01*
X149981177Y-135034533D01*
X150014406Y-135031844D01*
X150046267Y-135051645D01*
X150054553Y-135061415D01*
X150061965Y-135077307D01*
X150066302Y-135101275D01*
X150068338Y-135138148D01*
X150068845Y-135192756D01*
X150068845Y-135311289D01*
X150565556Y-135311289D01*
X150565556Y-135195776D01*
X150565994Y-135144078D01*
X150567958Y-135109554D01*
X150572474Y-135086978D01*
X150580567Y-135071126D01*
X150593265Y-135056776D01*
X150624643Y-135034533D01*
X150657872Y-135031844D01*
X150689734Y-135051645D01*
G36*
X150689734Y-135051645D02*
G01*
X150695366Y-135057835D01*
X150700456Y-135066041D01*
X150704543Y-135077817D01*
X150707721Y-135095276D01*
X150710087Y-135120530D01*
X150711738Y-135155690D01*
X150712769Y-135202869D01*
X150713277Y-135264177D01*
X150713359Y-135341727D01*
X150713109Y-135437631D01*
X150712625Y-135554000D01*
X150712557Y-135568175D01*
X150711971Y-135629937D01*
X150710648Y-135673620D01*
X150708103Y-135703001D01*
X150703848Y-135721855D01*
X150697396Y-135733959D01*
X150688262Y-135743089D01*
X150654804Y-135760506D01*
X150619856Y-135757604D01*
X150588953Y-135733100D01*
X150579944Y-135719897D01*
X150572492Y-135701361D01*
X150568124Y-135675333D01*
X150566069Y-135636787D01*
X150565556Y-135580700D01*
X150565556Y-135458045D01*
X150068845Y-135458045D01*
X150068845Y-135592871D01*
X150068772Y-135628662D01*
X150068009Y-135674992D01*
X150065833Y-135705526D01*
X150061536Y-135724557D01*
X150054412Y-135736374D01*
X150043755Y-135745271D01*
X150011504Y-135760341D01*
X149976217Y-135757673D01*
X149945486Y-135733100D01*
X149940831Y-135726845D01*
X149934895Y-135716321D01*
X149930364Y-135702391D01*
X149927048Y-135682317D01*
X149924759Y-135653360D01*
X149923308Y-135612780D01*
X149922505Y-135557840D01*
X149922162Y-135485799D01*
X149922089Y-135393920D01*
X149922089Y-135084485D01*
X149949798Y-135056776D01*
X149981177Y-135034533D01*
X150014406Y-135031844D01*
X150046267Y-135051645D01*
X150054553Y-135061415D01*
X150061965Y-135077307D01*
X150066302Y-135101275D01*
X150068338Y-135138148D01*
X150068845Y-135192756D01*
X150068845Y-135311289D01*
X150565556Y-135311289D01*
X150565556Y-135195776D01*
X150565994Y-135144078D01*
X150567958Y-135109554D01*
X150572474Y-135086978D01*
X150580567Y-135071126D01*
X150593265Y-135056776D01*
X150624643Y-135034533D01*
X150657872Y-135031844D01*
X150689734Y-135051645D01*
G37*
X155395133Y-135640396D02*
X155393163Y-135673175D01*
X155390235Y-135696095D01*
X155386158Y-135711897D01*
X155380743Y-135723319D01*
X155373803Y-135733100D01*
X155350406Y-135762845D01*
X155184714Y-135762251D01*
X155149918Y-135761953D01*
X155051435Y-135758522D01*
X154970473Y-135750839D01*
X154903379Y-135738282D01*
X154846496Y-135720227D01*
X154796169Y-135696052D01*
X154792810Y-135694135D01*
X154734998Y-135657417D01*
X154692644Y-135620451D01*
X154659828Y-135576966D01*
X154630628Y-135520689D01*
X154626346Y-135511073D01*
X154603769Y-135447887D01*
X154598034Y-135402333D01*
X154747279Y-135402333D01*
X154752892Y-135427061D01*
X154758618Y-135442939D01*
X154791548Y-135502847D01*
X154838886Y-135548600D01*
X154902652Y-135581736D01*
X154984861Y-135603790D01*
X154987655Y-135604292D01*
X155033940Y-135610255D01*
X155090336Y-135614483D01*
X155145274Y-135616089D01*
X155239156Y-135616089D01*
X155239156Y-135175822D01*
X155151667Y-135176270D01*
X155084747Y-135178746D01*
X154992349Y-135189998D01*
X154913034Y-135209537D01*
X154851060Y-135236511D01*
X154820120Y-135257240D01*
X154792000Y-135287006D01*
X154768660Y-135329434D01*
X154761533Y-135345400D01*
X154749709Y-135377902D01*
X154747279Y-135402333D01*
X154598034Y-135402333D01*
X154596797Y-135392509D01*
X154605399Y-135337483D01*
X154629541Y-135275351D01*
X154630337Y-135273658D01*
X154670788Y-135204236D01*
X154721473Y-135147638D01*
X154784198Y-135103070D01*
X154860774Y-135069741D01*
X154953009Y-135046861D01*
X155062712Y-135033636D01*
X155191691Y-135029275D01*
X155195263Y-135029270D01*
X155255283Y-135029410D01*
X155297214Y-135030446D01*
X155325328Y-135033040D01*
X155343897Y-135037853D01*
X155357194Y-135045544D01*
X155369491Y-135056776D01*
X155397200Y-135084485D01*
X155397200Y-135393920D01*
X155397175Y-135455526D01*
X155396950Y-135534311D01*
X155396332Y-135595021D01*
X155395775Y-135616089D01*
X155395133Y-135640396D01*
G36*
X155395133Y-135640396D02*
G01*
X155393163Y-135673175D01*
X155390235Y-135696095D01*
X155386158Y-135711897D01*
X155380743Y-135723319D01*
X155373803Y-135733100D01*
X155350406Y-135762845D01*
X155184714Y-135762251D01*
X155149918Y-135761953D01*
X155051435Y-135758522D01*
X154970473Y-135750839D01*
X154903379Y-135738282D01*
X154846496Y-135720227D01*
X154796169Y-135696052D01*
X154792810Y-135694135D01*
X154734998Y-135657417D01*
X154692644Y-135620451D01*
X154659828Y-135576966D01*
X154630628Y-135520689D01*
X154626346Y-135511073D01*
X154603769Y-135447887D01*
X154598034Y-135402333D01*
X154747279Y-135402333D01*
X154752892Y-135427061D01*
X154758618Y-135442939D01*
X154791548Y-135502847D01*
X154838886Y-135548600D01*
X154902652Y-135581736D01*
X154984861Y-135603790D01*
X154987655Y-135604292D01*
X155033940Y-135610255D01*
X155090336Y-135614483D01*
X155145274Y-135616089D01*
X155239156Y-135616089D01*
X155239156Y-135175822D01*
X155151667Y-135176270D01*
X155084747Y-135178746D01*
X154992349Y-135189998D01*
X154913034Y-135209537D01*
X154851060Y-135236511D01*
X154820120Y-135257240D01*
X154792000Y-135287006D01*
X154768660Y-135329434D01*
X154761533Y-135345400D01*
X154749709Y-135377902D01*
X154747279Y-135402333D01*
X154598034Y-135402333D01*
X154596797Y-135392509D01*
X154605399Y-135337483D01*
X154629541Y-135275351D01*
X154630337Y-135273658D01*
X154670788Y-135204236D01*
X154721473Y-135147638D01*
X154784198Y-135103070D01*
X154860774Y-135069741D01*
X154953009Y-135046861D01*
X155062712Y-135033636D01*
X155191691Y-135029275D01*
X155195263Y-135029270D01*
X155255283Y-135029410D01*
X155297214Y-135030446D01*
X155325328Y-135033040D01*
X155343897Y-135037853D01*
X155357194Y-135045544D01*
X155369491Y-135056776D01*
X155397200Y-135084485D01*
X155397200Y-135393920D01*
X155397175Y-135455526D01*
X155396950Y-135534311D01*
X155396332Y-135595021D01*
X155395775Y-135616089D01*
X155395133Y-135640396D01*
G37*
X162486817Y-135214427D02*
X162486870Y-135295041D01*
X162486622Y-135395956D01*
X162486583Y-135471617D01*
X162486328Y-135549526D01*
X162485684Y-135609536D01*
X162484480Y-135654264D01*
X162482543Y-135686326D01*
X162479703Y-135708340D01*
X162475788Y-135722924D01*
X162470626Y-135732694D01*
X162464045Y-135740267D01*
X162457077Y-135746501D01*
X162444079Y-135753801D01*
X162424931Y-135758554D01*
X162395528Y-135761292D01*
X162351762Y-135762545D01*
X162289528Y-135762845D01*
X162240582Y-135762469D01*
X162133722Y-135758041D01*
X162044494Y-135747953D01*
X161969696Y-135731365D01*
X161906125Y-135707435D01*
X161850579Y-135675321D01*
X161799854Y-135634182D01*
X161793866Y-135628330D01*
X161756999Y-135579821D01*
X161725899Y-135519013D01*
X161704417Y-135454769D01*
X161699136Y-135416026D01*
X161846353Y-135416026D01*
X161864635Y-135466961D01*
X161894305Y-135512878D01*
X161941002Y-135555287D01*
X162002392Y-135585090D01*
X162081538Y-135604226D01*
X162083028Y-135604464D01*
X162131999Y-135610256D01*
X162190693Y-135614396D01*
X162246734Y-135616004D01*
X162339867Y-135616089D01*
X162339867Y-135175822D01*
X162263667Y-135175808D01*
X162260639Y-135175817D01*
X162209519Y-135177782D01*
X162149416Y-135182507D01*
X162092708Y-135189035D01*
X162042750Y-135198331D01*
X161967998Y-135224600D01*
X161910489Y-135263899D01*
X161868988Y-135316933D01*
X161847771Y-135368200D01*
X161846353Y-135416026D01*
X161699136Y-135416026D01*
X161696400Y-135395956D01*
X161697679Y-135374739D01*
X161709991Y-135317323D01*
X161732520Y-135257413D01*
X161761750Y-135203363D01*
X161794167Y-135163532D01*
X161813708Y-135146510D01*
X161868420Y-135107322D01*
X161928723Y-135077193D01*
X161997919Y-135055232D01*
X162079311Y-135040550D01*
X162176200Y-135032259D01*
X162291889Y-135029467D01*
X162331371Y-135029066D01*
X162377082Y-135028653D01*
X162412883Y-135030457D01*
X162439974Y-135036739D01*
X162459556Y-135049759D01*
X162472830Y-135071778D01*
X162480998Y-135105055D01*
X162485260Y-135151851D01*
X162485857Y-135175822D01*
X162486817Y-135214427D01*
G36*
X162486817Y-135214427D02*
G01*
X162486870Y-135295041D01*
X162486622Y-135395956D01*
X162486583Y-135471617D01*
X162486328Y-135549526D01*
X162485684Y-135609536D01*
X162484480Y-135654264D01*
X162482543Y-135686326D01*
X162479703Y-135708340D01*
X162475788Y-135722924D01*
X162470626Y-135732694D01*
X162464045Y-135740267D01*
X162457077Y-135746501D01*
X162444079Y-135753801D01*
X162424931Y-135758554D01*
X162395528Y-135761292D01*
X162351762Y-135762545D01*
X162289528Y-135762845D01*
X162240582Y-135762469D01*
X162133722Y-135758041D01*
X162044494Y-135747953D01*
X161969696Y-135731365D01*
X161906125Y-135707435D01*
X161850579Y-135675321D01*
X161799854Y-135634182D01*
X161793866Y-135628330D01*
X161756999Y-135579821D01*
X161725899Y-135519013D01*
X161704417Y-135454769D01*
X161699136Y-135416026D01*
X161846353Y-135416026D01*
X161864635Y-135466961D01*
X161894305Y-135512878D01*
X161941002Y-135555287D01*
X162002392Y-135585090D01*
X162081538Y-135604226D01*
X162083028Y-135604464D01*
X162131999Y-135610256D01*
X162190693Y-135614396D01*
X162246734Y-135616004D01*
X162339867Y-135616089D01*
X162339867Y-135175822D01*
X162263667Y-135175808D01*
X162260639Y-135175817D01*
X162209519Y-135177782D01*
X162149416Y-135182507D01*
X162092708Y-135189035D01*
X162042750Y-135198331D01*
X161967998Y-135224600D01*
X161910489Y-135263899D01*
X161868988Y-135316933D01*
X161847771Y-135368200D01*
X161846353Y-135416026D01*
X161699136Y-135416026D01*
X161696400Y-135395956D01*
X161697679Y-135374739D01*
X161709991Y-135317323D01*
X161732520Y-135257413D01*
X161761750Y-135203363D01*
X161794167Y-135163532D01*
X161813708Y-135146510D01*
X161868420Y-135107322D01*
X161928723Y-135077193D01*
X161997919Y-135055232D01*
X162079311Y-135040550D01*
X162176200Y-135032259D01*
X162291889Y-135029467D01*
X162331371Y-135029066D01*
X162377082Y-135028653D01*
X162412883Y-135030457D01*
X162439974Y-135036739D01*
X162459556Y-135049759D01*
X162472830Y-135071778D01*
X162480998Y-135105055D01*
X162485260Y-135151851D01*
X162485857Y-135175822D01*
X162486817Y-135214427D01*
G37*
X157541893Y-135027892D02*
X157553301Y-135034029D01*
X157563850Y-135044691D01*
X157575136Y-135058811D01*
X157579589Y-135064772D01*
X157585588Y-135075268D01*
X157590167Y-135089093D01*
X157593519Y-135108998D01*
X157595833Y-135137732D01*
X157597301Y-135178045D01*
X157598113Y-135232687D01*
X157598460Y-135304407D01*
X157598534Y-135395956D01*
X157598511Y-135454486D01*
X157598292Y-135533573D01*
X157597683Y-135594516D01*
X157596492Y-135640062D01*
X157594529Y-135672963D01*
X157591603Y-135695968D01*
X157587523Y-135711826D01*
X157582097Y-135723286D01*
X157575136Y-135733100D01*
X157544708Y-135757493D01*
X157509765Y-135760372D01*
X157472784Y-135741282D01*
X157468600Y-135737807D01*
X157460424Y-135729279D01*
X157454364Y-135717728D01*
X157449981Y-135699896D01*
X157446839Y-135672524D01*
X157444502Y-135632354D01*
X157442531Y-135576128D01*
X157440489Y-135500589D01*
X157434845Y-135281458D01*
X157169556Y-135522099D01*
X157095722Y-135588875D01*
X157030542Y-135646991D01*
X156978348Y-135691949D01*
X156937273Y-135724871D01*
X156905455Y-135746879D01*
X156881026Y-135759094D01*
X156862124Y-135762639D01*
X156846883Y-135758636D01*
X156833439Y-135748207D01*
X156819927Y-135732474D01*
X156813682Y-135723991D01*
X156808050Y-135713413D01*
X156803839Y-135699255D01*
X156800887Y-135678803D01*
X156799032Y-135649342D01*
X156798113Y-135608161D01*
X156797968Y-135552544D01*
X156798435Y-135479779D01*
X156799352Y-135387151D01*
X156802667Y-135072199D01*
X156829318Y-135050633D01*
X156855383Y-135034441D01*
X156888241Y-135031670D01*
X156922772Y-135050623D01*
X156927084Y-135054208D01*
X156935216Y-135062737D01*
X156941245Y-135074329D01*
X156945606Y-135092235D01*
X156948734Y-135119706D01*
X156951063Y-135159994D01*
X156953029Y-135216351D01*
X156955067Y-135292029D01*
X156960711Y-135511878D01*
X157141334Y-135348084D01*
X157228072Y-135269451D01*
X157303843Y-135201058D01*
X157365980Y-135145708D01*
X157416078Y-135102338D01*
X157455735Y-135069881D01*
X157486548Y-135047273D01*
X157510114Y-135033448D01*
X157528030Y-135027343D01*
X157541893Y-135027892D01*
G36*
X157541893Y-135027892D02*
G01*
X157553301Y-135034029D01*
X157563850Y-135044691D01*
X157575136Y-135058811D01*
X157579589Y-135064772D01*
X157585588Y-135075268D01*
X157590167Y-135089093D01*
X157593519Y-135108998D01*
X157595833Y-135137732D01*
X157597301Y-135178045D01*
X157598113Y-135232687D01*
X157598460Y-135304407D01*
X157598534Y-135395956D01*
X157598511Y-135454486D01*
X157598292Y-135533573D01*
X157597683Y-135594516D01*
X157596492Y-135640062D01*
X157594529Y-135672963D01*
X157591603Y-135695968D01*
X157587523Y-135711826D01*
X157582097Y-135723286D01*
X157575136Y-135733100D01*
X157544708Y-135757493D01*
X157509765Y-135760372D01*
X157472784Y-135741282D01*
X157468600Y-135737807D01*
X157460424Y-135729279D01*
X157454364Y-135717728D01*
X157449981Y-135699896D01*
X157446839Y-135672524D01*
X157444502Y-135632354D01*
X157442531Y-135576128D01*
X157440489Y-135500589D01*
X157434845Y-135281458D01*
X157169556Y-135522099D01*
X157095722Y-135588875D01*
X157030542Y-135646991D01*
X156978348Y-135691949D01*
X156937273Y-135724871D01*
X156905455Y-135746879D01*
X156881026Y-135759094D01*
X156862124Y-135762639D01*
X156846883Y-135758636D01*
X156833439Y-135748207D01*
X156819927Y-135732474D01*
X156813682Y-135723991D01*
X156808050Y-135713413D01*
X156803839Y-135699255D01*
X156800887Y-135678803D01*
X156799032Y-135649342D01*
X156798113Y-135608161D01*
X156797968Y-135552544D01*
X156798435Y-135479779D01*
X156799352Y-135387151D01*
X156802667Y-135072199D01*
X156829318Y-135050633D01*
X156855383Y-135034441D01*
X156888241Y-135031670D01*
X156922772Y-135050623D01*
X156927084Y-135054208D01*
X156935216Y-135062737D01*
X156941245Y-135074329D01*
X156945606Y-135092235D01*
X156948734Y-135119706D01*
X156951063Y-135159994D01*
X156953029Y-135216351D01*
X156955067Y-135292029D01*
X156960711Y-135511878D01*
X157141334Y-135348084D01*
X157228072Y-135269451D01*
X157303843Y-135201058D01*
X157365980Y-135145708D01*
X157416078Y-135102338D01*
X157455735Y-135069881D01*
X157486548Y-135047273D01*
X157510114Y-135033448D01*
X157528030Y-135027343D01*
X157541893Y-135027892D01*
G37*
X158339150Y-135034179D02*
X158445157Y-135050494D01*
X158538969Y-135078545D01*
X158617765Y-135117452D01*
X158678719Y-135166334D01*
X158704789Y-135199195D01*
X158734297Y-135248394D01*
X158759568Y-135302252D01*
X158777218Y-135353419D01*
X158783858Y-135394544D01*
X158782298Y-135414259D01*
X158769357Y-135465592D01*
X158746194Y-135522118D01*
X158716302Y-135576035D01*
X158683173Y-135619539D01*
X158672977Y-135629887D01*
X158605892Y-135681662D01*
X158525766Y-135721554D01*
X158439556Y-135745956D01*
X158384592Y-135754068D01*
X158291139Y-135760673D01*
X158201358Y-135758586D01*
X158118869Y-135748340D01*
X158047286Y-135730470D01*
X157990228Y-135705508D01*
X157951311Y-135673988D01*
X157949936Y-135672012D01*
X157942848Y-135646786D01*
X157938609Y-135599535D01*
X157937200Y-135530071D01*
X157938060Y-135467838D01*
X157942780Y-135420456D01*
X157954470Y-135388353D01*
X157976239Y-135368800D01*
X158011198Y-135359070D01*
X158062456Y-135356433D01*
X158133123Y-135358161D01*
X158181743Y-135361173D01*
X158231939Y-135369366D01*
X158264433Y-135383419D01*
X158281892Y-135404654D01*
X158286983Y-135434394D01*
X158286877Y-135438936D01*
X158278175Y-135473730D01*
X158254165Y-135497147D01*
X158212900Y-135510347D01*
X158152431Y-135514489D01*
X158083956Y-135514489D01*
X158083956Y-135552841D01*
X158084006Y-135561976D01*
X158086227Y-135579227D01*
X158095494Y-135589521D01*
X158116875Y-135596459D01*
X158155436Y-135603641D01*
X158160910Y-135604575D01*
X158257860Y-135614478D01*
X158347852Y-135611559D01*
X158428760Y-135596829D01*
X158498459Y-135571299D01*
X158554824Y-135535978D01*
X158595729Y-135491879D01*
X158619051Y-135440012D01*
X158622663Y-135381388D01*
X158617145Y-135352494D01*
X158590461Y-135296604D01*
X158544273Y-135250945D01*
X158479291Y-135216108D01*
X158396229Y-135192690D01*
X158371555Y-135188241D01*
X158282226Y-135177742D01*
X158202419Y-135178971D01*
X158124326Y-135191906D01*
X158089183Y-135198696D01*
X158043745Y-135199713D01*
X158012430Y-135187182D01*
X157992277Y-135160395D01*
X157985893Y-135132148D01*
X157995379Y-135100924D01*
X158004708Y-135087499D01*
X158038943Y-135063967D01*
X158091565Y-135046095D01*
X158160081Y-135034599D01*
X158242000Y-135030192D01*
X158339150Y-135034179D01*
G36*
X158339150Y-135034179D02*
G01*
X158445157Y-135050494D01*
X158538969Y-135078545D01*
X158617765Y-135117452D01*
X158678719Y-135166334D01*
X158704789Y-135199195D01*
X158734297Y-135248394D01*
X158759568Y-135302252D01*
X158777218Y-135353419D01*
X158783858Y-135394544D01*
X158782298Y-135414259D01*
X158769357Y-135465592D01*
X158746194Y-135522118D01*
X158716302Y-135576035D01*
X158683173Y-135619539D01*
X158672977Y-135629887D01*
X158605892Y-135681662D01*
X158525766Y-135721554D01*
X158439556Y-135745956D01*
X158384592Y-135754068D01*
X158291139Y-135760673D01*
X158201358Y-135758586D01*
X158118869Y-135748340D01*
X158047286Y-135730470D01*
X157990228Y-135705508D01*
X157951311Y-135673988D01*
X157949936Y-135672012D01*
X157942848Y-135646786D01*
X157938609Y-135599535D01*
X157937200Y-135530071D01*
X157938060Y-135467838D01*
X157942780Y-135420456D01*
X157954470Y-135388353D01*
X157976239Y-135368800D01*
X158011198Y-135359070D01*
X158062456Y-135356433D01*
X158133123Y-135358161D01*
X158181743Y-135361173D01*
X158231939Y-135369366D01*
X158264433Y-135383419D01*
X158281892Y-135404654D01*
X158286983Y-135434394D01*
X158286877Y-135438936D01*
X158278175Y-135473730D01*
X158254165Y-135497147D01*
X158212900Y-135510347D01*
X158152431Y-135514489D01*
X158083956Y-135514489D01*
X158083956Y-135552841D01*
X158084006Y-135561976D01*
X158086227Y-135579227D01*
X158095494Y-135589521D01*
X158116875Y-135596459D01*
X158155436Y-135603641D01*
X158160910Y-135604575D01*
X158257860Y-135614478D01*
X158347852Y-135611559D01*
X158428760Y-135596829D01*
X158498459Y-135571299D01*
X158554824Y-135535978D01*
X158595729Y-135491879D01*
X158619051Y-135440012D01*
X158622663Y-135381388D01*
X158617145Y-135352494D01*
X158590461Y-135296604D01*
X158544273Y-135250945D01*
X158479291Y-135216108D01*
X158396229Y-135192690D01*
X158371555Y-135188241D01*
X158282226Y-135177742D01*
X158202419Y-135178971D01*
X158124326Y-135191906D01*
X158089183Y-135198696D01*
X158043745Y-135199713D01*
X158012430Y-135187182D01*
X157992277Y-135160395D01*
X157985893Y-135132148D01*
X157995379Y-135100924D01*
X158004708Y-135087499D01*
X158038943Y-135063967D01*
X158091565Y-135046095D01*
X158160081Y-135034599D01*
X158242000Y-135030192D01*
X158339150Y-135034179D01*
G37*
X156389803Y-135058811D02*
X156394752Y-135065495D01*
X156400596Y-135076066D01*
X156405057Y-135090153D01*
X156408321Y-135110478D01*
X156410574Y-135139765D01*
X156412002Y-135180737D01*
X156412792Y-135236117D01*
X156413129Y-135308628D01*
X156413200Y-135400994D01*
X156413171Y-135466911D01*
X156412939Y-135545228D01*
X156412319Y-135605496D01*
X156411126Y-135650393D01*
X156409179Y-135682602D01*
X156406294Y-135704800D01*
X156402288Y-135719669D01*
X156396979Y-135729889D01*
X156390183Y-135738138D01*
X156385668Y-135742795D01*
X156377438Y-135749282D01*
X156366078Y-135754194D01*
X156348810Y-135757749D01*
X156322855Y-135760167D01*
X156285436Y-135761667D01*
X156233773Y-135762467D01*
X156165089Y-135762787D01*
X156076606Y-135762845D01*
X156056931Y-135762838D01*
X155969906Y-135762572D01*
X155902254Y-135761806D01*
X155851299Y-135760392D01*
X155814367Y-135758180D01*
X155788783Y-135755022D01*
X155771871Y-135750769D01*
X155760957Y-135745271D01*
X155750464Y-135735285D01*
X155737203Y-135704168D01*
X155738386Y-135668280D01*
X155754550Y-135636733D01*
X155756739Y-135634457D01*
X155765427Y-135628189D01*
X155778769Y-135623523D01*
X155799752Y-135620227D01*
X155831363Y-135618068D01*
X155876590Y-135616814D01*
X155938420Y-135616231D01*
X156019839Y-135616089D01*
X156266445Y-135616089D01*
X156266445Y-135458045D01*
X156104006Y-135458045D01*
X156068338Y-135457964D01*
X156012568Y-135457167D01*
X155973430Y-135455162D01*
X155946976Y-135451521D01*
X155929259Y-135445812D01*
X155916329Y-135437607D01*
X155912686Y-135434423D01*
X155894278Y-135403448D01*
X155893644Y-135367112D01*
X155911183Y-135333493D01*
X155911245Y-135333424D01*
X155920916Y-135324798D01*
X155934209Y-135318742D01*
X155954917Y-135314811D01*
X155986828Y-135312556D01*
X156033734Y-135311531D01*
X156099424Y-135311289D01*
X156267571Y-135311289D01*
X156264186Y-135246378D01*
X156260800Y-135181467D01*
X156018723Y-135178414D01*
X155993707Y-135178086D01*
X155912087Y-135176606D01*
X155849768Y-135174222D01*
X155804154Y-135170227D01*
X155772652Y-135163913D01*
X155752667Y-135154574D01*
X155741604Y-135141503D01*
X155736869Y-135123992D01*
X155735867Y-135101335D01*
X155735873Y-135098970D01*
X155737027Y-135078939D01*
X155741824Y-135063146D01*
X155752632Y-135051090D01*
X155771817Y-135042267D01*
X155801745Y-135036175D01*
X155844783Y-135032311D01*
X155903299Y-135030174D01*
X155979657Y-135029260D01*
X156076226Y-135029067D01*
X156366406Y-135029067D01*
X156389803Y-135058811D01*
G36*
X156389803Y-135058811D02*
G01*
X156394752Y-135065495D01*
X156400596Y-135076066D01*
X156405057Y-135090153D01*
X156408321Y-135110478D01*
X156410574Y-135139765D01*
X156412002Y-135180737D01*
X156412792Y-135236117D01*
X156413129Y-135308628D01*
X156413200Y-135400994D01*
X156413171Y-135466911D01*
X156412939Y-135545228D01*
X156412319Y-135605496D01*
X156411126Y-135650393D01*
X156409179Y-135682602D01*
X156406294Y-135704800D01*
X156402288Y-135719669D01*
X156396979Y-135729889D01*
X156390183Y-135738138D01*
X156385668Y-135742795D01*
X156377438Y-135749282D01*
X156366078Y-135754194D01*
X156348810Y-135757749D01*
X156322855Y-135760167D01*
X156285436Y-135761667D01*
X156233773Y-135762467D01*
X156165089Y-135762787D01*
X156076606Y-135762845D01*
X156056931Y-135762838D01*
X155969906Y-135762572D01*
X155902254Y-135761806D01*
X155851299Y-135760392D01*
X155814367Y-135758180D01*
X155788783Y-135755022D01*
X155771871Y-135750769D01*
X155760957Y-135745271D01*
X155750464Y-135735285D01*
X155737203Y-135704168D01*
X155738386Y-135668280D01*
X155754550Y-135636733D01*
X155756739Y-135634457D01*
X155765427Y-135628189D01*
X155778769Y-135623523D01*
X155799752Y-135620227D01*
X155831363Y-135618068D01*
X155876590Y-135616814D01*
X155938420Y-135616231D01*
X156019839Y-135616089D01*
X156266445Y-135616089D01*
X156266445Y-135458045D01*
X156104006Y-135458045D01*
X156068338Y-135457964D01*
X156012568Y-135457167D01*
X155973430Y-135455162D01*
X155946976Y-135451521D01*
X155929259Y-135445812D01*
X155916329Y-135437607D01*
X155912686Y-135434423D01*
X155894278Y-135403448D01*
X155893644Y-135367112D01*
X155911183Y-135333493D01*
X155911245Y-135333424D01*
X155920916Y-135324798D01*
X155934209Y-135318742D01*
X155954917Y-135314811D01*
X155986828Y-135312556D01*
X156033734Y-135311531D01*
X156099424Y-135311289D01*
X156267571Y-135311289D01*
X156264186Y-135246378D01*
X156260800Y-135181467D01*
X156018723Y-135178414D01*
X155993707Y-135178086D01*
X155912087Y-135176606D01*
X155849768Y-135174222D01*
X155804154Y-135170227D01*
X155772652Y-135163913D01*
X155752667Y-135154574D01*
X155741604Y-135141503D01*
X155736869Y-135123992D01*
X155735867Y-135101335D01*
X155735873Y-135098970D01*
X155737027Y-135078939D01*
X155741824Y-135063146D01*
X155752632Y-135051090D01*
X155771817Y-135042267D01*
X155801745Y-135036175D01*
X155844783Y-135032311D01*
X155903299Y-135030174D01*
X155979657Y-135029260D01*
X156076226Y-135029067D01*
X156366406Y-135029067D01*
X156389803Y-135058811D01*
G37*
X161066734Y-135029083D02*
X161143831Y-135029275D01*
X161202777Y-135029860D01*
X161246364Y-135031051D01*
X161277383Y-135033064D01*
X161298625Y-135036112D01*
X161312882Y-135040409D01*
X161322945Y-135046172D01*
X161331606Y-135053612D01*
X161333391Y-135055293D01*
X161340635Y-135062832D01*
X161346277Y-135071850D01*
X161350517Y-135084984D01*
X161353556Y-135104872D01*
X161355594Y-135134151D01*
X161356830Y-135175458D01*
X161357465Y-135231431D01*
X161357700Y-135304707D01*
X161357734Y-135397923D01*
X161357697Y-135470713D01*
X161357448Y-135548889D01*
X161356812Y-135609103D01*
X161355615Y-135653982D01*
X161353684Y-135686152D01*
X161350846Y-135708239D01*
X161346927Y-135722870D01*
X161341755Y-135732670D01*
X161335156Y-135740267D01*
X161331822Y-135743444D01*
X161323300Y-135749554D01*
X161311298Y-135754229D01*
X161293087Y-135757659D01*
X161265940Y-135760036D01*
X161227129Y-135761552D01*
X161173924Y-135762398D01*
X161103598Y-135762765D01*
X161013422Y-135762845D01*
X160971314Y-135762833D01*
X160890167Y-135762651D01*
X160827675Y-135762098D01*
X160781109Y-135760982D01*
X160747741Y-135759113D01*
X160724844Y-135756298D01*
X160709688Y-135752346D01*
X160699546Y-135747066D01*
X160691689Y-135740267D01*
X160676963Y-135718667D01*
X160669111Y-135689467D01*
X160674610Y-135665560D01*
X160691689Y-135638667D01*
X160696668Y-135634059D01*
X160706443Y-135627772D01*
X160720559Y-135623146D01*
X160742054Y-135619930D01*
X160773968Y-135617870D01*
X160819342Y-135616712D01*
X160881213Y-135616202D01*
X160962622Y-135616089D01*
X161210978Y-135616089D01*
X161210978Y-135458045D01*
X161049801Y-135458045D01*
X161013983Y-135457899D01*
X160948359Y-135456176D01*
X160901118Y-135451741D01*
X160869383Y-135443637D01*
X160850277Y-135430906D01*
X160840923Y-135412592D01*
X160838445Y-135387738D01*
X160839242Y-135367482D01*
X160844494Y-135345656D01*
X160857288Y-135330304D01*
X160880628Y-135320309D01*
X160917517Y-135314553D01*
X160970959Y-135311919D01*
X161043958Y-135311289D01*
X161212105Y-135311289D01*
X161208719Y-135246378D01*
X161205334Y-135181467D01*
X160957617Y-135178418D01*
X160895026Y-135177539D01*
X160826565Y-135176095D01*
X160775661Y-135174164D01*
X160739408Y-135171514D01*
X160714901Y-135167910D01*
X160699235Y-135163121D01*
X160689506Y-135156913D01*
X160683491Y-135150510D01*
X160670482Y-135118828D01*
X160674043Y-135083142D01*
X160693818Y-135052084D01*
X160697069Y-135049161D01*
X160706049Y-135042810D01*
X160718153Y-135037957D01*
X160736159Y-135034403D01*
X160762847Y-135031946D01*
X160800997Y-135030385D01*
X160853386Y-135029518D01*
X160922794Y-135029146D01*
X161012001Y-135029067D01*
X161066734Y-135029083D01*
G36*
X161066734Y-135029083D02*
G01*
X161143831Y-135029275D01*
X161202777Y-135029860D01*
X161246364Y-135031051D01*
X161277383Y-135033064D01*
X161298625Y-135036112D01*
X161312882Y-135040409D01*
X161322945Y-135046172D01*
X161331606Y-135053612D01*
X161333391Y-135055293D01*
X161340635Y-135062832D01*
X161346277Y-135071850D01*
X161350517Y-135084984D01*
X161353556Y-135104872D01*
X161355594Y-135134151D01*
X161356830Y-135175458D01*
X161357465Y-135231431D01*
X161357700Y-135304707D01*
X161357734Y-135397923D01*
X161357697Y-135470713D01*
X161357448Y-135548889D01*
X161356812Y-135609103D01*
X161355615Y-135653982D01*
X161353684Y-135686152D01*
X161350846Y-135708239D01*
X161346927Y-135722870D01*
X161341755Y-135732670D01*
X161335156Y-135740267D01*
X161331822Y-135743444D01*
X161323300Y-135749554D01*
X161311298Y-135754229D01*
X161293087Y-135757659D01*
X161265940Y-135760036D01*
X161227129Y-135761552D01*
X161173924Y-135762398D01*
X161103598Y-135762765D01*
X161013422Y-135762845D01*
X160971314Y-135762833D01*
X160890167Y-135762651D01*
X160827675Y-135762098D01*
X160781109Y-135760982D01*
X160747741Y-135759113D01*
X160724844Y-135756298D01*
X160709688Y-135752346D01*
X160699546Y-135747066D01*
X160691689Y-135740267D01*
X160676963Y-135718667D01*
X160669111Y-135689467D01*
X160674610Y-135665560D01*
X160691689Y-135638667D01*
X160696668Y-135634059D01*
X160706443Y-135627772D01*
X160720559Y-135623146D01*
X160742054Y-135619930D01*
X160773968Y-135617870D01*
X160819342Y-135616712D01*
X160881213Y-135616202D01*
X160962622Y-135616089D01*
X161210978Y-135616089D01*
X161210978Y-135458045D01*
X161049801Y-135458045D01*
X161013983Y-135457899D01*
X160948359Y-135456176D01*
X160901118Y-135451741D01*
X160869383Y-135443637D01*
X160850277Y-135430906D01*
X160840923Y-135412592D01*
X160838445Y-135387738D01*
X160839242Y-135367482D01*
X160844494Y-135345656D01*
X160857288Y-135330304D01*
X160880628Y-135320309D01*
X160917517Y-135314553D01*
X160970959Y-135311919D01*
X161043958Y-135311289D01*
X161212105Y-135311289D01*
X161208719Y-135246378D01*
X161205334Y-135181467D01*
X160957617Y-135178418D01*
X160895026Y-135177539D01*
X160826565Y-135176095D01*
X160775661Y-135174164D01*
X160739408Y-135171514D01*
X160714901Y-135167910D01*
X160699235Y-135163121D01*
X160689506Y-135156913D01*
X160683491Y-135150510D01*
X160670482Y-135118828D01*
X160674043Y-135083142D01*
X160693818Y-135052084D01*
X160697069Y-135049161D01*
X160706049Y-135042810D01*
X160718153Y-135037957D01*
X160736159Y-135034403D01*
X160762847Y-135031946D01*
X160800997Y-135030385D01*
X160853386Y-135029518D01*
X160922794Y-135029146D01*
X161012001Y-135029067D01*
X161066734Y-135029083D01*
G37*
X152499702Y-135038478D02*
X152517663Y-135056989D01*
X152538263Y-135088071D01*
X152563095Y-135133756D01*
X152593750Y-135196078D01*
X152631820Y-135277071D01*
X152646454Y-135308454D01*
X152676203Y-135371638D01*
X152702297Y-135426244D01*
X152723292Y-135469290D01*
X152737739Y-135497793D01*
X152744191Y-135508770D01*
X152745550Y-135508189D01*
X152755542Y-135494242D01*
X152772833Y-135464704D01*
X152795430Y-135423087D01*
X152821338Y-135372903D01*
X152837311Y-135341414D01*
X152866261Y-135286061D01*
X152888749Y-135247044D01*
X152906965Y-135221566D01*
X152923096Y-135206831D01*
X152939330Y-135200042D01*
X152957857Y-135198400D01*
X152968360Y-135198875D01*
X152984476Y-135203082D01*
X152999790Y-135213946D01*
X153016388Y-135234219D01*
X153036357Y-135266654D01*
X153061783Y-135314004D01*
X153094752Y-135379022D01*
X153104485Y-135398277D01*
X153128943Y-135444946D01*
X153149178Y-135481109D01*
X153163311Y-135503497D01*
X153169460Y-135508845D01*
X153170827Y-135505573D01*
X153180202Y-135484664D01*
X153197062Y-135447725D01*
X153219979Y-135397874D01*
X153247520Y-135338226D01*
X153278255Y-135271898D01*
X153304970Y-135214677D01*
X153334593Y-135152688D01*
X153357664Y-135106949D01*
X153375643Y-135074908D01*
X153389990Y-135054014D01*
X153402166Y-135041718D01*
X153413632Y-135035466D01*
X153423042Y-135032574D01*
X153448147Y-135032425D01*
X153475290Y-135047768D01*
X153476590Y-135048753D01*
X153498674Y-135071388D01*
X153509723Y-135093613D01*
X153509769Y-135094253D01*
X153505228Y-135111915D01*
X153492364Y-135146481D01*
X153472605Y-135194826D01*
X153447381Y-135253825D01*
X153418119Y-135320355D01*
X153386250Y-135391291D01*
X153353201Y-135463507D01*
X153320401Y-135533880D01*
X153289280Y-135599285D01*
X153261265Y-135656597D01*
X153237786Y-135702692D01*
X153220272Y-135734446D01*
X153210151Y-135748733D01*
X153175743Y-135762102D01*
X153134046Y-135755741D01*
X153128681Y-135751044D01*
X153112852Y-135728893D01*
X153090650Y-135692132D01*
X153064233Y-135644415D01*
X153035760Y-135589393D01*
X152955986Y-135430150D01*
X152882799Y-135576742D01*
X152873103Y-135596032D01*
X152846125Y-135648380D01*
X152822096Y-135693170D01*
X152803332Y-135726154D01*
X152792146Y-135743089D01*
X152791000Y-135744332D01*
X152762879Y-135759619D01*
X152727817Y-135761302D01*
X152696776Y-135748733D01*
X152694350Y-135745884D01*
X152682090Y-135725259D01*
X152662352Y-135687708D01*
X152636448Y-135635880D01*
X152605685Y-135572423D01*
X152571375Y-135499985D01*
X152534825Y-135421216D01*
X152514585Y-135377093D01*
X152477812Y-135296365D01*
X152449355Y-135232687D01*
X152428331Y-135183752D01*
X152413854Y-135147257D01*
X152405039Y-135120895D01*
X152401004Y-135102361D01*
X152400862Y-135089352D01*
X152403730Y-135079561D01*
X152418387Y-135058678D01*
X152444990Y-135038377D01*
X152445745Y-135038035D01*
X152465335Y-135031034D01*
X152482790Y-135030504D01*
X152499702Y-135038478D01*
G36*
X152499702Y-135038478D02*
G01*
X152517663Y-135056989D01*
X152538263Y-135088071D01*
X152563095Y-135133756D01*
X152593750Y-135196078D01*
X152631820Y-135277071D01*
X152646454Y-135308454D01*
X152676203Y-135371638D01*
X152702297Y-135426244D01*
X152723292Y-135469290D01*
X152737739Y-135497793D01*
X152744191Y-135508770D01*
X152745550Y-135508189D01*
X152755542Y-135494242D01*
X152772833Y-135464704D01*
X152795430Y-135423087D01*
X152821338Y-135372903D01*
X152837311Y-135341414D01*
X152866261Y-135286061D01*
X152888749Y-135247044D01*
X152906965Y-135221566D01*
X152923096Y-135206831D01*
X152939330Y-135200042D01*
X152957857Y-135198400D01*
X152968360Y-135198875D01*
X152984476Y-135203082D01*
X152999790Y-135213946D01*
X153016388Y-135234219D01*
X153036357Y-135266654D01*
X153061783Y-135314004D01*
X153094752Y-135379022D01*
X153104485Y-135398277D01*
X153128943Y-135444946D01*
X153149178Y-135481109D01*
X153163311Y-135503497D01*
X153169460Y-135508845D01*
X153170827Y-135505573D01*
X153180202Y-135484664D01*
X153197062Y-135447725D01*
X153219979Y-135397874D01*
X153247520Y-135338226D01*
X153278255Y-135271898D01*
X153304970Y-135214677D01*
X153334593Y-135152688D01*
X153357664Y-135106949D01*
X153375643Y-135074908D01*
X153389990Y-135054014D01*
X153402166Y-135041718D01*
X153413632Y-135035466D01*
X153423042Y-135032574D01*
X153448147Y-135032425D01*
X153475290Y-135047768D01*
X153476590Y-135048753D01*
X153498674Y-135071388D01*
X153509723Y-135093613D01*
X153509769Y-135094253D01*
X153505228Y-135111915D01*
X153492364Y-135146481D01*
X153472605Y-135194826D01*
X153447381Y-135253825D01*
X153418119Y-135320355D01*
X153386250Y-135391291D01*
X153353201Y-135463507D01*
X153320401Y-135533880D01*
X153289280Y-135599285D01*
X153261265Y-135656597D01*
X153237786Y-135702692D01*
X153220272Y-135734446D01*
X153210151Y-135748733D01*
X153175743Y-135762102D01*
X153134046Y-135755741D01*
X153128681Y-135751044D01*
X153112852Y-135728893D01*
X153090650Y-135692132D01*
X153064233Y-135644415D01*
X153035760Y-135589393D01*
X152955986Y-135430150D01*
X152882799Y-135576742D01*
X152873103Y-135596032D01*
X152846125Y-135648380D01*
X152822096Y-135693170D01*
X152803332Y-135726154D01*
X152792146Y-135743089D01*
X152791000Y-135744332D01*
X152762879Y-135759619D01*
X152727817Y-135761302D01*
X152696776Y-135748733D01*
X152694350Y-135745884D01*
X152682090Y-135725259D01*
X152662352Y-135687708D01*
X152636448Y-135635880D01*
X152605685Y-135572423D01*
X152571375Y-135499985D01*
X152534825Y-135421216D01*
X152514585Y-135377093D01*
X152477812Y-135296365D01*
X152449355Y-135232687D01*
X152428331Y-135183752D01*
X152413854Y-135147257D01*
X152405039Y-135120895D01*
X152401004Y-135102361D01*
X152400862Y-135089352D01*
X152403730Y-135079561D01*
X152418387Y-135058678D01*
X152444990Y-135038377D01*
X152445745Y-135038035D01*
X152465335Y-135031034D01*
X152482790Y-135030504D01*
X152499702Y-135038478D01*
G37*
X160050853Y-135029936D02*
X160117100Y-135035366D01*
X160172400Y-135044964D01*
X160223283Y-135059825D01*
X160294595Y-135092958D01*
X160345752Y-135135640D01*
X160376575Y-135187705D01*
X160386889Y-135248983D01*
X160385952Y-135280232D01*
X160380160Y-135305029D01*
X160365353Y-135326699D01*
X160337380Y-135354049D01*
X160329402Y-135361378D01*
X160305692Y-135382281D01*
X160283298Y-135399251D01*
X160259265Y-135413205D01*
X160230637Y-135425056D01*
X160194460Y-135435720D01*
X160147780Y-135446111D01*
X160087641Y-135457146D01*
X160011090Y-135469738D01*
X159915171Y-135484804D01*
X159896808Y-135487838D01*
X159834478Y-135501458D01*
X159789260Y-135517192D01*
X159762976Y-135534263D01*
X159757447Y-135551897D01*
X159760068Y-135556168D01*
X159778000Y-135571233D01*
X159806126Y-135587867D01*
X159818926Y-135593857D01*
X159840224Y-135601050D01*
X159866610Y-135605827D01*
X159902454Y-135608646D01*
X159952128Y-135609964D01*
X160020000Y-135610237D01*
X160037785Y-135610164D01*
X160105406Y-135609053D01*
X160170345Y-135606828D01*
X160225970Y-135603762D01*
X160265651Y-135600127D01*
X160301162Y-135596059D01*
X160330415Y-135595276D01*
X160349315Y-135599876D01*
X160364429Y-135610551D01*
X160368085Y-135614144D01*
X160384427Y-135645918D01*
X160383107Y-135681572D01*
X160364150Y-135712190D01*
X160343780Y-135723796D01*
X160307796Y-135736491D01*
X160265372Y-135746541D01*
X160261922Y-135747140D01*
X160219252Y-135752356D01*
X160161866Y-135756730D01*
X160096849Y-135759818D01*
X160031289Y-135761177D01*
X160015057Y-135761218D01*
X159916744Y-135758741D01*
X159836692Y-135750735D01*
X159771513Y-135736203D01*
X159717817Y-135714149D01*
X159672216Y-135683576D01*
X159631323Y-135643486D01*
X159611202Y-135617259D01*
X159599576Y-135587712D01*
X159596667Y-135547995D01*
X159596808Y-135536026D01*
X159600681Y-135503345D01*
X159613065Y-135476819D01*
X159638230Y-135445971D01*
X159659442Y-135423831D01*
X159685838Y-135401285D01*
X159715555Y-135382917D01*
X159751785Y-135367661D01*
X159797717Y-135354449D01*
X159856544Y-135342214D01*
X159931456Y-135329889D01*
X160025645Y-135316406D01*
X160070957Y-135309396D01*
X160138911Y-135294837D01*
X160188047Y-135278337D01*
X160217614Y-135260439D01*
X160226864Y-135241685D01*
X160215048Y-135222615D01*
X160181416Y-135203771D01*
X160178370Y-135202557D01*
X160132011Y-135190479D01*
X160069361Y-135182279D01*
X159995927Y-135178119D01*
X159917217Y-135178161D01*
X159838739Y-135182569D01*
X159766000Y-135191505D01*
X159762073Y-135192154D01*
X159713257Y-135199861D01*
X159681005Y-135203473D01*
X159660008Y-135202876D01*
X159644954Y-135197954D01*
X159630534Y-135188596D01*
X159629364Y-135187725D01*
X159604847Y-135157351D01*
X159600054Y-135121850D01*
X159615860Y-135087269D01*
X159620406Y-135082813D01*
X159650020Y-135067673D01*
X159697002Y-135054550D01*
X159757306Y-135043750D01*
X159826888Y-135035581D01*
X159901703Y-135030351D01*
X159977706Y-135028367D01*
X160050853Y-135029936D01*
G36*
X160050853Y-135029936D02*
G01*
X160117100Y-135035366D01*
X160172400Y-135044964D01*
X160223283Y-135059825D01*
X160294595Y-135092958D01*
X160345752Y-135135640D01*
X160376575Y-135187705D01*
X160386889Y-135248983D01*
X160385952Y-135280232D01*
X160380160Y-135305029D01*
X160365353Y-135326699D01*
X160337380Y-135354049D01*
X160329402Y-135361378D01*
X160305692Y-135382281D01*
X160283298Y-135399251D01*
X160259265Y-135413205D01*
X160230637Y-135425056D01*
X160194460Y-135435720D01*
X160147780Y-135446111D01*
X160087641Y-135457146D01*
X160011090Y-135469738D01*
X159915171Y-135484804D01*
X159896808Y-135487838D01*
X159834478Y-135501458D01*
X159789260Y-135517192D01*
X159762976Y-135534263D01*
X159757447Y-135551897D01*
X159760068Y-135556168D01*
X159778000Y-135571233D01*
X159806126Y-135587867D01*
X159818926Y-135593857D01*
X159840224Y-135601050D01*
X159866610Y-135605827D01*
X159902454Y-135608646D01*
X159952128Y-135609964D01*
X160020000Y-135610237D01*
X160037785Y-135610164D01*
X160105406Y-135609053D01*
X160170345Y-135606828D01*
X160225970Y-135603762D01*
X160265651Y-135600127D01*
X160301162Y-135596059D01*
X160330415Y-135595276D01*
X160349315Y-135599876D01*
X160364429Y-135610551D01*
X160368085Y-135614144D01*
X160384427Y-135645918D01*
X160383107Y-135681572D01*
X160364150Y-135712190D01*
X160343780Y-135723796D01*
X160307796Y-135736491D01*
X160265372Y-135746541D01*
X160261922Y-135747140D01*
X160219252Y-135752356D01*
X160161866Y-135756730D01*
X160096849Y-135759818D01*
X160031289Y-135761177D01*
X160015057Y-135761218D01*
X159916744Y-135758741D01*
X159836692Y-135750735D01*
X159771513Y-135736203D01*
X159717817Y-135714149D01*
X159672216Y-135683576D01*
X159631323Y-135643486D01*
X159611202Y-135617259D01*
X159599576Y-135587712D01*
X159596667Y-135547995D01*
X159596808Y-135536026D01*
X159600681Y-135503345D01*
X159613065Y-135476819D01*
X159638230Y-135445971D01*
X159659442Y-135423831D01*
X159685838Y-135401285D01*
X159715555Y-135382917D01*
X159751785Y-135367661D01*
X159797717Y-135354449D01*
X159856544Y-135342214D01*
X159931456Y-135329889D01*
X160025645Y-135316406D01*
X160070957Y-135309396D01*
X160138911Y-135294837D01*
X160188047Y-135278337D01*
X160217614Y-135260439D01*
X160226864Y-135241685D01*
X160215048Y-135222615D01*
X160181416Y-135203771D01*
X160178370Y-135202557D01*
X160132011Y-135190479D01*
X160069361Y-135182279D01*
X159995927Y-135178119D01*
X159917217Y-135178161D01*
X159838739Y-135182569D01*
X159766000Y-135191505D01*
X159762073Y-135192154D01*
X159713257Y-135199861D01*
X159681005Y-135203473D01*
X159660008Y-135202876D01*
X159644954Y-135197954D01*
X159630534Y-135188596D01*
X159629364Y-135187725D01*
X159604847Y-135157351D01*
X159600054Y-135121850D01*
X159615860Y-135087269D01*
X159620406Y-135082813D01*
X159650020Y-135067673D01*
X159697002Y-135054550D01*
X159757306Y-135043750D01*
X159826888Y-135035581D01*
X159901703Y-135030351D01*
X159977706Y-135028367D01*
X160050853Y-135029936D01*
G37*
X156198711Y-130722033D02*
X156294268Y-130739523D01*
X156458558Y-130784564D01*
X156612589Y-130847656D01*
X156758509Y-130929915D01*
X156898466Y-131032457D01*
X157034608Y-131156399D01*
X157078473Y-131201661D01*
X157190758Y-131333865D01*
X157283972Y-131471832D01*
X157360719Y-131619750D01*
X157423603Y-131781803D01*
X157427420Y-131793391D01*
X157477507Y-131979392D01*
X157510899Y-132175521D01*
X157527584Y-132377568D01*
X157527551Y-132581325D01*
X157510791Y-132782581D01*
X157477292Y-132977128D01*
X157427044Y-133160756D01*
X157383190Y-133278053D01*
X157305348Y-133440951D01*
X157211828Y-133594866D01*
X157104822Y-133736671D01*
X156986519Y-133863239D01*
X156859111Y-133971441D01*
X156781606Y-134024120D01*
X156654725Y-134093750D01*
X156517243Y-134152468D01*
X156375716Y-134197587D01*
X156236702Y-134226422D01*
X156222597Y-134228106D01*
X156179153Y-134231434D01*
X156121723Y-134234275D01*
X156056122Y-134236373D01*
X155988167Y-134237468D01*
X155861378Y-134235140D01*
X155713673Y-134222136D01*
X155575779Y-134197133D01*
X155442014Y-134159318D01*
X155418562Y-134150889D01*
X155370612Y-134131408D01*
X155314140Y-134106473D01*
X155252379Y-134077722D01*
X155188563Y-134046790D01*
X155125926Y-134015315D01*
X155067703Y-133984934D01*
X155017127Y-133957283D01*
X154977433Y-133933999D01*
X154951854Y-133916718D01*
X154943625Y-133907079D01*
X154945076Y-133903984D01*
X154956250Y-133884079D01*
X154977134Y-133848420D01*
X155006265Y-133799459D01*
X155042181Y-133739646D01*
X155083420Y-133671433D01*
X155128517Y-133597271D01*
X155309785Y-133300008D01*
X155356315Y-133344539D01*
X155447723Y-133422865D01*
X155561334Y-133497439D01*
X155679122Y-133551474D01*
X155799559Y-133584290D01*
X155921117Y-133595211D01*
X155962585Y-133593868D01*
X156080080Y-133575612D01*
X156190089Y-133536617D01*
X156291430Y-133477670D01*
X156382921Y-133399557D01*
X156463380Y-133303064D01*
X156531627Y-133188978D01*
X156547908Y-133154724D01*
X156593982Y-133031240D01*
X156629106Y-132892918D01*
X156653197Y-132743561D01*
X156666173Y-132586973D01*
X156667949Y-132426956D01*
X156658443Y-132267314D01*
X156637572Y-132111850D01*
X156605252Y-131964366D01*
X156561399Y-131828667D01*
X156523982Y-131742076D01*
X156459185Y-131628688D01*
X156383772Y-131535070D01*
X156297418Y-131460959D01*
X156199795Y-131406094D01*
X156090577Y-131370212D01*
X155969439Y-131353051D01*
X155900038Y-131351880D01*
X155777168Y-131366141D01*
X155661664Y-131401241D01*
X155554953Y-131456682D01*
X155458464Y-131531964D01*
X155442720Y-131546440D01*
X155412150Y-131572962D01*
X155389809Y-131590138D01*
X155379691Y-131594787D01*
X155377706Y-131592597D01*
X155363241Y-131573721D01*
X155339400Y-131540397D01*
X155308029Y-131495380D01*
X155270974Y-131441425D01*
X155230083Y-131381285D01*
X155187202Y-131317718D01*
X155144178Y-131253476D01*
X155102857Y-131191315D01*
X155065086Y-131133991D01*
X155032712Y-131084257D01*
X155007582Y-131044868D01*
X154991542Y-131018580D01*
X154986439Y-131008147D01*
X154991050Y-131003941D01*
X155010267Y-130998933D01*
X155019838Y-130996386D01*
X155047809Y-130985249D01*
X155089448Y-130966802D01*
X155140995Y-130942725D01*
X155198690Y-130914699D01*
X155209957Y-130909154D01*
X155387687Y-130829889D01*
X155557490Y-130770385D01*
X155721430Y-130730245D01*
X155881571Y-130709071D01*
X156039977Y-130706466D01*
X156198711Y-130722033D01*
G36*
X156198711Y-130722033D02*
G01*
X156294268Y-130739523D01*
X156458558Y-130784564D01*
X156612589Y-130847656D01*
X156758509Y-130929915D01*
X156898466Y-131032457D01*
X157034608Y-131156399D01*
X157078473Y-131201661D01*
X157190758Y-131333865D01*
X157283972Y-131471832D01*
X157360719Y-131619750D01*
X157423603Y-131781803D01*
X157427420Y-131793391D01*
X157477507Y-131979392D01*
X157510899Y-132175521D01*
X157527584Y-132377568D01*
X157527551Y-132581325D01*
X157510791Y-132782581D01*
X157477292Y-132977128D01*
X157427044Y-133160756D01*
X157383190Y-133278053D01*
X157305348Y-133440951D01*
X157211828Y-133594866D01*
X157104822Y-133736671D01*
X156986519Y-133863239D01*
X156859111Y-133971441D01*
X156781606Y-134024120D01*
X156654725Y-134093750D01*
X156517243Y-134152468D01*
X156375716Y-134197587D01*
X156236702Y-134226422D01*
X156222597Y-134228106D01*
X156179153Y-134231434D01*
X156121723Y-134234275D01*
X156056122Y-134236373D01*
X155988167Y-134237468D01*
X155861378Y-134235140D01*
X155713673Y-134222136D01*
X155575779Y-134197133D01*
X155442014Y-134159318D01*
X155418562Y-134150889D01*
X155370612Y-134131408D01*
X155314140Y-134106473D01*
X155252379Y-134077722D01*
X155188563Y-134046790D01*
X155125926Y-134015315D01*
X155067703Y-133984934D01*
X155017127Y-133957283D01*
X154977433Y-133933999D01*
X154951854Y-133916718D01*
X154943625Y-133907079D01*
X154945076Y-133903984D01*
X154956250Y-133884079D01*
X154977134Y-133848420D01*
X155006265Y-133799459D01*
X155042181Y-133739646D01*
X155083420Y-133671433D01*
X155128517Y-133597271D01*
X155309785Y-133300008D01*
X155356315Y-133344539D01*
X155447723Y-133422865D01*
X155561334Y-133497439D01*
X155679122Y-133551474D01*
X155799559Y-133584290D01*
X155921117Y-133595211D01*
X155962585Y-133593868D01*
X156080080Y-133575612D01*
X156190089Y-133536617D01*
X156291430Y-133477670D01*
X156382921Y-133399557D01*
X156463380Y-133303064D01*
X156531627Y-133188978D01*
X156547908Y-133154724D01*
X156593982Y-133031240D01*
X156629106Y-132892918D01*
X156653197Y-132743561D01*
X156666173Y-132586973D01*
X156667949Y-132426956D01*
X156658443Y-132267314D01*
X156637572Y-132111850D01*
X156605252Y-131964366D01*
X156561399Y-131828667D01*
X156523982Y-131742076D01*
X156459185Y-131628688D01*
X156383772Y-131535070D01*
X156297418Y-131460959D01*
X156199795Y-131406094D01*
X156090577Y-131370212D01*
X155969439Y-131353051D01*
X155900038Y-131351880D01*
X155777168Y-131366141D01*
X155661664Y-131401241D01*
X155554953Y-131456682D01*
X155458464Y-131531964D01*
X155442720Y-131546440D01*
X155412150Y-131572962D01*
X155389809Y-131590138D01*
X155379691Y-131594787D01*
X155377706Y-131592597D01*
X155363241Y-131573721D01*
X155339400Y-131540397D01*
X155308029Y-131495380D01*
X155270974Y-131441425D01*
X155230083Y-131381285D01*
X155187202Y-131317718D01*
X155144178Y-131253476D01*
X155102857Y-131191315D01*
X155065086Y-131133991D01*
X155032712Y-131084257D01*
X155007582Y-131044868D01*
X154991542Y-131018580D01*
X154986439Y-131008147D01*
X154991050Y-131003941D01*
X155010267Y-130998933D01*
X155019838Y-130996386D01*
X155047809Y-130985249D01*
X155089448Y-130966802D01*
X155140995Y-130942725D01*
X155198690Y-130914699D01*
X155209957Y-130909154D01*
X155387687Y-130829889D01*
X155557490Y-130770385D01*
X155721430Y-130730245D01*
X155881571Y-130709071D01*
X156039977Y-130706466D01*
X156198711Y-130722033D01*
G37*
X152395994Y-133002711D02*
X152395268Y-133080158D01*
X152386689Y-133231594D01*
X152367833Y-133368283D01*
X152337837Y-133494276D01*
X152295836Y-133613625D01*
X152240969Y-133730381D01*
X152174167Y-133841179D01*
X152083363Y-133954739D01*
X151979708Y-134050211D01*
X151863887Y-134127073D01*
X151736586Y-134184797D01*
X151598489Y-134222858D01*
X151560793Y-134228666D01*
X151481752Y-134234396D01*
X151393629Y-134234583D01*
X151304236Y-134229539D01*
X151221384Y-134219578D01*
X151152887Y-134205012D01*
X151122035Y-134195364D01*
X151044730Y-134165123D01*
X150967679Y-134127617D01*
X150898200Y-134086614D01*
X150843615Y-134045879D01*
X150820916Y-134026505D01*
X150798201Y-134008662D01*
X150786779Y-134001778D01*
X150785537Y-134003424D01*
X150782728Y-134021205D01*
X150780776Y-134054370D01*
X150780045Y-134097733D01*
X150780045Y-134193689D01*
X149921896Y-134193689D01*
X149956161Y-134132974D01*
X149961355Y-134123868D01*
X149969715Y-134109249D01*
X149977288Y-134095173D01*
X149984112Y-134080540D01*
X149990227Y-134064249D01*
X149995673Y-134045198D01*
X150000487Y-134022286D01*
X150004708Y-133994413D01*
X150008377Y-133960478D01*
X150011531Y-133919379D01*
X150014211Y-133870015D01*
X150016454Y-133811286D01*
X150018299Y-133742090D01*
X150019787Y-133661326D01*
X150020955Y-133567894D01*
X150021844Y-133460692D01*
X150022491Y-133338620D01*
X150022936Y-133200576D01*
X150023218Y-133045459D01*
X150023375Y-132872168D01*
X150023448Y-132679603D01*
X150023474Y-132466662D01*
X150023485Y-132330530D01*
X150825200Y-132330530D01*
X150825200Y-133480721D01*
X150895756Y-133527089D01*
X150936417Y-133550791D01*
X150990546Y-133576639D01*
X151039689Y-133594829D01*
X151103165Y-133610551D01*
X151199331Y-133621541D01*
X151283900Y-133613365D01*
X151357219Y-133585805D01*
X151419637Y-133538642D01*
X151471502Y-133471658D01*
X151513160Y-133384633D01*
X151544962Y-133277350D01*
X151547545Y-133265009D01*
X151556000Y-133203772D01*
X151561663Y-133126692D01*
X151564576Y-133039002D01*
X151564783Y-132945934D01*
X151562330Y-132852720D01*
X151557261Y-132764594D01*
X151549619Y-132686788D01*
X151539448Y-132624533D01*
X151538167Y-132618666D01*
X151509126Y-132508121D01*
X151474610Y-132417575D01*
X151433456Y-132344953D01*
X151384499Y-132288181D01*
X151326574Y-132245184D01*
X151294620Y-132229615D01*
X151221784Y-132210722D01*
X151140443Y-132207465D01*
X151055319Y-132219389D01*
X150971133Y-132246040D01*
X150892608Y-132286962D01*
X150825200Y-132330530D01*
X150023485Y-132330530D01*
X150023493Y-132232245D01*
X150023689Y-130547378D01*
X150929017Y-130547378D01*
X150904585Y-130584067D01*
X150898318Y-130593647D01*
X150872208Y-130639981D01*
X150854469Y-130687102D01*
X150842908Y-130742251D01*
X150835331Y-130812667D01*
X150834839Y-130819650D01*
X150833062Y-130857641D01*
X150831444Y-130911576D01*
X150829999Y-130978703D01*
X150828740Y-131056271D01*
X150827680Y-131141528D01*
X150826829Y-131231724D01*
X150826203Y-131324107D01*
X150825812Y-131415925D01*
X150825670Y-131504427D01*
X150825790Y-131586862D01*
X150826183Y-131660479D01*
X150826862Y-131722526D01*
X150827841Y-131770251D01*
X150829132Y-131800904D01*
X150830747Y-131811733D01*
X150838957Y-131807333D01*
X150860647Y-131792362D01*
X150890014Y-131770448D01*
X150938879Y-131736236D01*
X151027125Y-131689714D01*
X151125916Y-131656046D01*
X151238510Y-131634231D01*
X151368164Y-131623265D01*
X151460670Y-131622219D01*
X151582011Y-131632014D01*
X151692099Y-131656174D01*
X151795389Y-131695785D01*
X151896338Y-131751932D01*
X151941503Y-131782883D01*
X152046911Y-131874115D01*
X152138538Y-131983106D01*
X152216332Y-132109726D01*
X152280241Y-132253845D01*
X152330214Y-132415332D01*
X152366198Y-132594059D01*
X152388143Y-132789895D01*
X152393900Y-132945934D01*
X152395994Y-133002711D01*
G36*
X152395994Y-133002711D02*
G01*
X152395268Y-133080158D01*
X152386689Y-133231594D01*
X152367833Y-133368283D01*
X152337837Y-133494276D01*
X152295836Y-133613625D01*
X152240969Y-133730381D01*
X152174167Y-133841179D01*
X152083363Y-133954739D01*
X151979708Y-134050211D01*
X151863887Y-134127073D01*
X151736586Y-134184797D01*
X151598489Y-134222858D01*
X151560793Y-134228666D01*
X151481752Y-134234396D01*
X151393629Y-134234583D01*
X151304236Y-134229539D01*
X151221384Y-134219578D01*
X151152887Y-134205012D01*
X151122035Y-134195364D01*
X151044730Y-134165123D01*
X150967679Y-134127617D01*
X150898200Y-134086614D01*
X150843615Y-134045879D01*
X150820916Y-134026505D01*
X150798201Y-134008662D01*
X150786779Y-134001778D01*
X150785537Y-134003424D01*
X150782728Y-134021205D01*
X150780776Y-134054370D01*
X150780045Y-134097733D01*
X150780045Y-134193689D01*
X149921896Y-134193689D01*
X149956161Y-134132974D01*
X149961355Y-134123868D01*
X149969715Y-134109249D01*
X149977288Y-134095173D01*
X149984112Y-134080540D01*
X149990227Y-134064249D01*
X149995673Y-134045198D01*
X150000487Y-134022286D01*
X150004708Y-133994413D01*
X150008377Y-133960478D01*
X150011531Y-133919379D01*
X150014211Y-133870015D01*
X150016454Y-133811286D01*
X150018299Y-133742090D01*
X150019787Y-133661326D01*
X150020955Y-133567894D01*
X150021844Y-133460692D01*
X150022491Y-133338620D01*
X150022936Y-133200576D01*
X150023218Y-133045459D01*
X150023375Y-132872168D01*
X150023448Y-132679603D01*
X150023474Y-132466662D01*
X150023485Y-132330530D01*
X150825200Y-132330530D01*
X150825200Y-133480721D01*
X150895756Y-133527089D01*
X150936417Y-133550791D01*
X150990546Y-133576639D01*
X151039689Y-133594829D01*
X151103165Y-133610551D01*
X151199331Y-133621541D01*
X151283900Y-133613365D01*
X151357219Y-133585805D01*
X151419637Y-133538642D01*
X151471502Y-133471658D01*
X151513160Y-133384633D01*
X151544962Y-133277350D01*
X151547545Y-133265009D01*
X151556000Y-133203772D01*
X151561663Y-133126692D01*
X151564576Y-133039002D01*
X151564783Y-132945934D01*
X151562330Y-132852720D01*
X151557261Y-132764594D01*
X151549619Y-132686788D01*
X151539448Y-132624533D01*
X151538167Y-132618666D01*
X151509126Y-132508121D01*
X151474610Y-132417575D01*
X151433456Y-132344953D01*
X151384499Y-132288181D01*
X151326574Y-132245184D01*
X151294620Y-132229615D01*
X151221784Y-132210722D01*
X151140443Y-132207465D01*
X151055319Y-132219389D01*
X150971133Y-132246040D01*
X150892608Y-132286962D01*
X150825200Y-132330530D01*
X150023485Y-132330530D01*
X150023493Y-132232245D01*
X150023689Y-130547378D01*
X150929017Y-130547378D01*
X150904585Y-130584067D01*
X150898318Y-130593647D01*
X150872208Y-130639981D01*
X150854469Y-130687102D01*
X150842908Y-130742251D01*
X150835331Y-130812667D01*
X150834839Y-130819650D01*
X150833062Y-130857641D01*
X150831444Y-130911576D01*
X150829999Y-130978703D01*
X150828740Y-131056271D01*
X150827680Y-131141528D01*
X150826829Y-131231724D01*
X150826203Y-131324107D01*
X150825812Y-131415925D01*
X150825670Y-131504427D01*
X150825790Y-131586862D01*
X150826183Y-131660479D01*
X150826862Y-131722526D01*
X150827841Y-131770251D01*
X150829132Y-131800904D01*
X150830747Y-131811733D01*
X150838957Y-131807333D01*
X150860647Y-131792362D01*
X150890014Y-131770448D01*
X150938879Y-131736236D01*
X151027125Y-131689714D01*
X151125916Y-131656046D01*
X151238510Y-131634231D01*
X151368164Y-131623265D01*
X151460670Y-131622219D01*
X151582011Y-131632014D01*
X151692099Y-131656174D01*
X151795389Y-131695785D01*
X151896338Y-131751932D01*
X151941503Y-131782883D01*
X152046911Y-131874115D01*
X152138538Y-131983106D01*
X152216332Y-132109726D01*
X152280241Y-132253845D01*
X152330214Y-132415332D01*
X152366198Y-132594059D01*
X152388143Y-132789895D01*
X152393900Y-132945934D01*
X152395994Y-133002711D01*
G37*
X154937755Y-133403467D02*
X154937261Y-133437363D01*
X154933632Y-133512202D01*
X154926022Y-133574401D01*
X154913688Y-133630984D01*
X154869313Y-133757076D01*
X154806400Y-133871679D01*
X154726238Y-133972568D01*
X154629740Y-134058924D01*
X154517822Y-134129932D01*
X154391397Y-134184776D01*
X154251378Y-134222638D01*
X154215149Y-134228351D01*
X154136155Y-134234313D01*
X154047841Y-134234646D01*
X153958075Y-134229659D01*
X153874722Y-134219666D01*
X153805651Y-134204978D01*
X153719187Y-134174749D01*
X153609286Y-134120057D01*
X153511956Y-134052543D01*
X153449867Y-134001556D01*
X153446605Y-134097622D01*
X153443343Y-134193689D01*
X153020450Y-134193689D01*
X153009543Y-134193686D01*
X152915056Y-134193380D01*
X152828331Y-134192616D01*
X152751837Y-134191451D01*
X152688043Y-134189942D01*
X152639418Y-134188147D01*
X152608433Y-134186121D01*
X152597556Y-134183922D01*
X152597578Y-134183463D01*
X152604614Y-134167910D01*
X152620434Y-134145071D01*
X152624734Y-134139638D01*
X152635777Y-134125606D01*
X152645311Y-134112186D01*
X152653461Y-134097722D01*
X152660352Y-134080556D01*
X152666111Y-134059034D01*
X152670862Y-134031498D01*
X152674731Y-133996292D01*
X152677844Y-133951760D01*
X152680325Y-133896246D01*
X152682300Y-133828093D01*
X152683894Y-133745645D01*
X152685234Y-133647246D01*
X152686444Y-133531239D01*
X152687649Y-133395968D01*
X152688595Y-133284586D01*
X153489378Y-133284586D01*
X153489378Y-133480462D01*
X153534048Y-133536973D01*
X153546785Y-133552212D01*
X153593604Y-133594844D01*
X153654255Y-133630672D01*
X153664897Y-133635850D01*
X153703676Y-133652745D01*
X153738692Y-133662909D01*
X153778722Y-133668325D01*
X153832541Y-133670978D01*
X153850648Y-133671383D01*
X153926011Y-133668540D01*
X153986743Y-133656620D01*
X154038452Y-133634037D01*
X154086746Y-133599211D01*
X154091803Y-133594798D01*
X154140272Y-133539160D01*
X154168459Y-133475333D01*
X154177752Y-133400282D01*
X154170520Y-133328693D01*
X154145796Y-133265645D01*
X154101249Y-133207758D01*
X154046319Y-133160808D01*
X153973894Y-133120961D01*
X153887340Y-133093263D01*
X153784670Y-133077096D01*
X153663894Y-133071842D01*
X153655007Y-133071857D01*
X153599660Y-133072655D01*
X153552736Y-133074488D01*
X153518953Y-133077111D01*
X153503028Y-133080274D01*
X153498943Y-133086741D01*
X153494572Y-133108875D01*
X153491604Y-133147988D01*
X153489914Y-133205939D01*
X153489378Y-133284586D01*
X152688595Y-133284586D01*
X152688975Y-133239778D01*
X152690228Y-133097012D01*
X152691651Y-132951942D01*
X152693176Y-132826027D01*
X152694933Y-132717436D01*
X152697051Y-132624334D01*
X152699660Y-132544891D01*
X152702890Y-132477273D01*
X152706869Y-132419649D01*
X152711728Y-132370185D01*
X152717597Y-132327050D01*
X152724604Y-132288410D01*
X152732880Y-132252434D01*
X152742554Y-132217289D01*
X152753756Y-132181142D01*
X152766616Y-132142161D01*
X152782090Y-132099091D01*
X152824994Y-132006871D01*
X152878735Y-131927099D01*
X152947576Y-131852965D01*
X153025185Y-131789405D01*
X153129761Y-131727725D01*
X153249244Y-131680202D01*
X153384508Y-131646567D01*
X153536426Y-131626552D01*
X153705872Y-131619889D01*
X153763890Y-131620287D01*
X153829398Y-131622335D01*
X153890693Y-131626704D01*
X153952097Y-131634035D01*
X154017932Y-131644969D01*
X154092520Y-131660147D01*
X154180184Y-131680209D01*
X154285245Y-131705797D01*
X154313806Y-131712820D01*
X154389054Y-131730776D01*
X154459388Y-131746820D01*
X154520567Y-131760028D01*
X154568354Y-131769474D01*
X154598511Y-131774231D01*
X154626783Y-131777910D01*
X154653060Y-131783187D01*
X154663059Y-131787942D01*
X154659952Y-131796781D01*
X154649194Y-131824072D01*
X154631864Y-131866906D01*
X154609126Y-131922425D01*
X154582147Y-131987772D01*
X154552090Y-132060089D01*
X154545493Y-132075879D01*
X154506907Y-132166484D01*
X154475768Y-132236217D01*
X154451917Y-132285405D01*
X154435198Y-132314374D01*
X154425454Y-132323452D01*
X154417766Y-132321405D01*
X154391415Y-132311760D01*
X154352982Y-132296190D01*
X154307822Y-132276815D01*
X154213293Y-132238814D01*
X154076480Y-132197780D01*
X153935289Y-132172612D01*
X153897314Y-132168611D01*
X153794059Y-132166447D01*
X153706952Y-132179622D01*
X153635129Y-132208756D01*
X153577731Y-132254466D01*
X153533896Y-132317372D01*
X153502762Y-132398092D01*
X153483470Y-132497245D01*
X153476050Y-132556224D01*
X153637936Y-132549445D01*
X153764495Y-132547813D01*
X153915951Y-132554194D01*
X154064396Y-132568777D01*
X154200578Y-132590882D01*
X154265245Y-132605821D01*
X154397490Y-132648741D01*
X154519762Y-132705340D01*
X154629685Y-132774017D01*
X154724883Y-132853170D01*
X154802980Y-132941196D01*
X154861599Y-133036493D01*
X154885595Y-133088864D01*
X154911232Y-133159590D01*
X154927478Y-133230812D01*
X154935822Y-133309712D01*
X154937690Y-133400282D01*
X154937755Y-133403467D01*
G36*
X154937755Y-133403467D02*
G01*
X154937261Y-133437363D01*
X154933632Y-133512202D01*
X154926022Y-133574401D01*
X154913688Y-133630984D01*
X154869313Y-133757076D01*
X154806400Y-133871679D01*
X154726238Y-133972568D01*
X154629740Y-134058924D01*
X154517822Y-134129932D01*
X154391397Y-134184776D01*
X154251378Y-134222638D01*
X154215149Y-134228351D01*
X154136155Y-134234313D01*
X154047841Y-134234646D01*
X153958075Y-134229659D01*
X153874722Y-134219666D01*
X153805651Y-134204978D01*
X153719187Y-134174749D01*
X153609286Y-134120057D01*
X153511956Y-134052543D01*
X153449867Y-134001556D01*
X153446605Y-134097622D01*
X153443343Y-134193689D01*
X153020450Y-134193689D01*
X153009543Y-134193686D01*
X152915056Y-134193380D01*
X152828331Y-134192616D01*
X152751837Y-134191451D01*
X152688043Y-134189942D01*
X152639418Y-134188147D01*
X152608433Y-134186121D01*
X152597556Y-134183922D01*
X152597578Y-134183463D01*
X152604614Y-134167910D01*
X152620434Y-134145071D01*
X152624734Y-134139638D01*
X152635777Y-134125606D01*
X152645311Y-134112186D01*
X152653461Y-134097722D01*
X152660352Y-134080556D01*
X152666111Y-134059034D01*
X152670862Y-134031498D01*
X152674731Y-133996292D01*
X152677844Y-133951760D01*
X152680325Y-133896246D01*
X152682300Y-133828093D01*
X152683894Y-133745645D01*
X152685234Y-133647246D01*
X152686444Y-133531239D01*
X152687649Y-133395968D01*
X152688595Y-133284586D01*
X153489378Y-133284586D01*
X153489378Y-133480462D01*
X153534048Y-133536973D01*
X153546785Y-133552212D01*
X153593604Y-133594844D01*
X153654255Y-133630672D01*
X153664897Y-133635850D01*
X153703676Y-133652745D01*
X153738692Y-133662909D01*
X153778722Y-133668325D01*
X153832541Y-133670978D01*
X153850648Y-133671383D01*
X153926011Y-133668540D01*
X153986743Y-133656620D01*
X154038452Y-133634037D01*
X154086746Y-133599211D01*
X154091803Y-133594798D01*
X154140272Y-133539160D01*
X154168459Y-133475333D01*
X154177752Y-133400282D01*
X154170520Y-133328693D01*
X154145796Y-133265645D01*
X154101249Y-133207758D01*
X154046319Y-133160808D01*
X153973894Y-133120961D01*
X153887340Y-133093263D01*
X153784670Y-133077096D01*
X153663894Y-133071842D01*
X153655007Y-133071857D01*
X153599660Y-133072655D01*
X153552736Y-133074488D01*
X153518953Y-133077111D01*
X153503028Y-133080274D01*
X153498943Y-133086741D01*
X153494572Y-133108875D01*
X153491604Y-133147988D01*
X153489914Y-133205939D01*
X153489378Y-133284586D01*
X152688595Y-133284586D01*
X152688975Y-133239778D01*
X152690228Y-133097012D01*
X152691651Y-132951942D01*
X152693176Y-132826027D01*
X152694933Y-132717436D01*
X152697051Y-132624334D01*
X152699660Y-132544891D01*
X152702890Y-132477273D01*
X152706869Y-132419649D01*
X152711728Y-132370185D01*
X152717597Y-132327050D01*
X152724604Y-132288410D01*
X152732880Y-132252434D01*
X152742554Y-132217289D01*
X152753756Y-132181142D01*
X152766616Y-132142161D01*
X152782090Y-132099091D01*
X152824994Y-132006871D01*
X152878735Y-131927099D01*
X152947576Y-131852965D01*
X153025185Y-131789405D01*
X153129761Y-131727725D01*
X153249244Y-131680202D01*
X153384508Y-131646567D01*
X153536426Y-131626552D01*
X153705872Y-131619889D01*
X153763890Y-131620287D01*
X153829398Y-131622335D01*
X153890693Y-131626704D01*
X153952097Y-131634035D01*
X154017932Y-131644969D01*
X154092520Y-131660147D01*
X154180184Y-131680209D01*
X154285245Y-131705797D01*
X154313806Y-131712820D01*
X154389054Y-131730776D01*
X154459388Y-131746820D01*
X154520567Y-131760028D01*
X154568354Y-131769474D01*
X154598511Y-131774231D01*
X154626783Y-131777910D01*
X154653060Y-131783187D01*
X154663059Y-131787942D01*
X154659952Y-131796781D01*
X154649194Y-131824072D01*
X154631864Y-131866906D01*
X154609126Y-131922425D01*
X154582147Y-131987772D01*
X154552090Y-132060089D01*
X154545493Y-132075879D01*
X154506907Y-132166484D01*
X154475768Y-132236217D01*
X154451917Y-132285405D01*
X154435198Y-132314374D01*
X154425454Y-132323452D01*
X154417766Y-132321405D01*
X154391415Y-132311760D01*
X154352982Y-132296190D01*
X154307822Y-132276815D01*
X154213293Y-132238814D01*
X154076480Y-132197780D01*
X153935289Y-132172612D01*
X153897314Y-132168611D01*
X153794059Y-132166447D01*
X153706952Y-132179622D01*
X153635129Y-132208756D01*
X153577731Y-132254466D01*
X153533896Y-132317372D01*
X153502762Y-132398092D01*
X153483470Y-132497245D01*
X153476050Y-132556224D01*
X153637936Y-132549445D01*
X153764495Y-132547813D01*
X153915951Y-132554194D01*
X154064396Y-132568777D01*
X154200578Y-132590882D01*
X154265245Y-132605821D01*
X154397490Y-132648741D01*
X154519762Y-132705340D01*
X154629685Y-132774017D01*
X154724883Y-132853170D01*
X154802980Y-132941196D01*
X154861599Y-133036493D01*
X154885595Y-133088864D01*
X154911232Y-133159590D01*
X154927478Y-133230812D01*
X154935822Y-133309712D01*
X154937690Y-133400282D01*
X154937755Y-133403467D01*
G37*
X162485614Y-130871792D02*
X162486059Y-131003011D01*
X162486362Y-131150216D01*
X162486548Y-131314349D01*
X162486642Y-131496352D01*
X162486671Y-131697165D01*
X162486661Y-131917732D01*
X162486636Y-132158992D01*
X162486622Y-132421889D01*
X162486622Y-132464040D01*
X162486646Y-132724668D01*
X162486685Y-132963796D01*
X162486708Y-133182360D01*
X162486687Y-133381295D01*
X162486593Y-133561535D01*
X162486395Y-133724015D01*
X162486063Y-133869670D01*
X162485569Y-133999434D01*
X162484883Y-134114243D01*
X162483976Y-134215030D01*
X162482817Y-134302730D01*
X162481378Y-134378279D01*
X162479629Y-134442611D01*
X162477540Y-134496661D01*
X162475083Y-134541363D01*
X162472227Y-134577652D01*
X162468943Y-134606463D01*
X162465202Y-134628731D01*
X162460974Y-134645390D01*
X162456229Y-134657375D01*
X162450939Y-134665621D01*
X162445073Y-134671062D01*
X162438602Y-134674634D01*
X162431497Y-134677270D01*
X162423728Y-134679906D01*
X162415266Y-134683477D01*
X162410908Y-134685145D01*
X162402395Y-134687111D01*
X162389694Y-134688911D01*
X162371885Y-134690555D01*
X162348049Y-134692047D01*
X162317266Y-134693397D01*
X162278617Y-134694611D01*
X162231182Y-134695697D01*
X162174043Y-134696661D01*
X162106279Y-134697511D01*
X162026971Y-134698253D01*
X161935199Y-134698897D01*
X161830044Y-134699447D01*
X161710587Y-134699913D01*
X161575908Y-134700300D01*
X161425088Y-134700616D01*
X161257206Y-134700869D01*
X161071345Y-134701066D01*
X160866583Y-134701213D01*
X160642002Y-134701318D01*
X160396682Y-134701389D01*
X160129704Y-134701432D01*
X160091321Y-134701437D01*
X159825922Y-134701480D01*
X159582050Y-134701525D01*
X159358783Y-134701548D01*
X159155196Y-134701524D01*
X158970367Y-134701430D01*
X158803373Y-134701243D01*
X158653290Y-134700939D01*
X158519196Y-134700494D01*
X158400166Y-134699885D01*
X158295279Y-134699089D01*
X158203610Y-134698080D01*
X158124237Y-134696837D01*
X158056237Y-134695335D01*
X157998686Y-134693551D01*
X157950662Y-134691461D01*
X157911240Y-134689042D01*
X157879499Y-134686270D01*
X157854514Y-134683121D01*
X157835364Y-134679572D01*
X157821123Y-134675598D01*
X157810871Y-134671178D01*
X157803682Y-134666286D01*
X157798635Y-134660900D01*
X157794805Y-134654996D01*
X157791271Y-134648549D01*
X157787108Y-134641537D01*
X157786025Y-134639687D01*
X157783813Y-134634180D01*
X157781786Y-134625868D01*
X157779938Y-134613809D01*
X157778261Y-134597063D01*
X157776745Y-134574687D01*
X157775383Y-134545740D01*
X157774167Y-134509280D01*
X157773089Y-134464367D01*
X157772140Y-134410057D01*
X157771312Y-134345410D01*
X157770597Y-134269484D01*
X157769987Y-134181338D01*
X157769942Y-134172493D01*
X158061378Y-134172493D01*
X158065260Y-134173765D01*
X158088520Y-134175791D01*
X158130874Y-134177626D01*
X158190132Y-134179227D01*
X158264107Y-134180549D01*
X158350610Y-134181548D01*
X158447452Y-134182180D01*
X158552445Y-134182400D01*
X159250651Y-134182400D01*
X160405090Y-134182400D01*
X160404456Y-134106200D01*
X160405574Y-134064160D01*
X160411304Y-134028334D01*
X160423890Y-133990772D01*
X160445568Y-133942577D01*
X160448789Y-133935897D01*
X160474188Y-133886359D01*
X160500996Y-133838369D01*
X160523917Y-133801466D01*
X160528485Y-133794834D01*
X160550516Y-133763593D01*
X160582693Y-133718654D01*
X160623457Y-133662147D01*
X160671245Y-133596204D01*
X160724498Y-133522957D01*
X160781655Y-133444536D01*
X160841155Y-133363072D01*
X160901437Y-133280698D01*
X160960940Y-133199544D01*
X161018105Y-133121742D01*
X161071370Y-133049423D01*
X161119174Y-132984718D01*
X161159957Y-132929759D01*
X161192158Y-132886676D01*
X161214216Y-132857602D01*
X161224571Y-132844667D01*
X161229044Y-132840351D01*
X161233236Y-132838312D01*
X161236643Y-132840926D01*
X161239325Y-132849986D01*
X161241341Y-132867285D01*
X161242748Y-132894614D01*
X161243605Y-132933765D01*
X161243970Y-132986533D01*
X161243903Y-133054707D01*
X161243460Y-133140082D01*
X161242702Y-133244449D01*
X161241685Y-133369600D01*
X161241308Y-133414300D01*
X161240169Y-133535395D01*
X161238972Y-133636688D01*
X161237636Y-133720262D01*
X161236077Y-133788204D01*
X161234215Y-133842599D01*
X161231966Y-133885532D01*
X161229248Y-133919089D01*
X161225979Y-133945355D01*
X161222078Y-133966416D01*
X161217461Y-133984357D01*
X161209192Y-134010770D01*
X161185583Y-134072772D01*
X161159685Y-134125573D01*
X161134535Y-134162645D01*
X161133339Y-134164075D01*
X161131168Y-134168424D01*
X161133328Y-134172026D01*
X161141644Y-134174951D01*
X161157940Y-134177269D01*
X161184041Y-134179051D01*
X161221771Y-134180367D01*
X161272956Y-134181286D01*
X161339420Y-134181878D01*
X161422987Y-134182215D01*
X161525483Y-134182365D01*
X161648732Y-134182400D01*
X162180296Y-134182400D01*
X162141523Y-134124783D01*
X162135432Y-134115893D01*
X162124976Y-134101069D01*
X162115579Y-134087422D01*
X162107183Y-134073765D01*
X162099733Y-134058911D01*
X162093173Y-134041670D01*
X162087446Y-134020855D01*
X162082495Y-133995280D01*
X162078266Y-133963755D01*
X162074701Y-133925093D01*
X162071744Y-133878107D01*
X162069340Y-133821608D01*
X162067431Y-133754409D01*
X162065962Y-133675322D01*
X162064876Y-133583160D01*
X162064118Y-133476734D01*
X162063630Y-133354857D01*
X162063358Y-133216341D01*
X162063243Y-133059999D01*
X162063231Y-132884642D01*
X162063265Y-132689082D01*
X162063289Y-132472133D01*
X162063280Y-132349513D01*
X162063243Y-132144447D01*
X162063227Y-131960116D01*
X162063288Y-131795334D01*
X162063484Y-131648916D01*
X162063870Y-131519674D01*
X162064505Y-131406422D01*
X162065444Y-131307975D01*
X162066745Y-131223144D01*
X162068464Y-131150744D01*
X162070659Y-131089589D01*
X162073385Y-131038492D01*
X162076701Y-130996267D01*
X162080662Y-130961727D01*
X162085325Y-130933686D01*
X162090747Y-130910958D01*
X162096986Y-130892356D01*
X162104097Y-130876693D01*
X162112138Y-130862784D01*
X162121166Y-130849441D01*
X162131236Y-130835479D01*
X162142407Y-130819711D01*
X162182197Y-130761867D01*
X161122314Y-130761867D01*
X161160311Y-130824966D01*
X161174993Y-130850005D01*
X161189531Y-130877586D01*
X161201627Y-130905700D01*
X161211532Y-130936551D01*
X161219494Y-130972344D01*
X161225761Y-131015283D01*
X161230582Y-131067574D01*
X161234206Y-131131419D01*
X161236881Y-131209025D01*
X161238857Y-131302594D01*
X161240382Y-131414333D01*
X161241704Y-131546445D01*
X161242613Y-131666434D01*
X161243020Y-131783063D01*
X161242767Y-131878531D01*
X161241857Y-131952556D01*
X161240293Y-132004855D01*
X161238079Y-132035149D01*
X161235220Y-132043156D01*
X161232161Y-132039858D01*
X161214006Y-132018408D01*
X161184275Y-131981889D01*
X161144639Y-131932442D01*
X161096771Y-131872207D01*
X161042343Y-131803327D01*
X160983027Y-131727943D01*
X160920495Y-131648196D01*
X160856421Y-131566228D01*
X160792475Y-131484180D01*
X160730331Y-131404194D01*
X160671661Y-131328411D01*
X160618137Y-131258973D01*
X160571430Y-131198021D01*
X160533214Y-131147696D01*
X160505161Y-131110140D01*
X160488943Y-131087495D01*
X160443635Y-131015212D01*
X160403661Y-130935463D01*
X160382130Y-130867188D01*
X160378827Y-130809844D01*
X160384116Y-130761867D01*
X159252356Y-130762117D01*
X159291867Y-130792722D01*
X159301248Y-130800089D01*
X159364183Y-130854438D01*
X159432997Y-130922259D01*
X159509596Y-131005516D01*
X159595888Y-131106178D01*
X159613052Y-131126847D01*
X159653833Y-131176409D01*
X159703588Y-131237326D01*
X159760955Y-131307898D01*
X159824569Y-131386424D01*
X159893069Y-131471204D01*
X159965090Y-131560537D01*
X160039270Y-131652722D01*
X160054517Y-131671702D01*
X160114246Y-131746060D01*
X160188653Y-131838848D01*
X160261131Y-131929388D01*
X160330314Y-132015978D01*
X160394841Y-132096918D01*
X160453347Y-132170506D01*
X160504470Y-132235044D01*
X160546847Y-132288829D01*
X160579115Y-132330162D01*
X160599910Y-132357342D01*
X160607869Y-132368668D01*
X160606111Y-132372771D01*
X160593230Y-132393334D01*
X160568885Y-132429561D01*
X160534247Y-132479824D01*
X160490486Y-132542492D01*
X160438775Y-132615936D01*
X160380284Y-132698527D01*
X160316184Y-132788636D01*
X160247646Y-132884631D01*
X160175843Y-132984885D01*
X160101944Y-133087768D01*
X160027121Y-133191650D01*
X159952545Y-133294901D01*
X159879387Y-133395892D01*
X159808819Y-133492994D01*
X159742011Y-133584577D01*
X159680135Y-133669011D01*
X159624361Y-133744667D01*
X159575862Y-133809916D01*
X159535807Y-133863128D01*
X159505369Y-133902673D01*
X159484944Y-133928026D01*
X159438899Y-133982295D01*
X159388612Y-134038775D01*
X159341815Y-134088669D01*
X159250651Y-134182400D01*
X158552445Y-134182400D01*
X158621356Y-134182349D01*
X158719607Y-134182091D01*
X158809030Y-134181637D01*
X158887333Y-134181010D01*
X158952223Y-134180235D01*
X159001411Y-134179335D01*
X159032604Y-134178334D01*
X159043511Y-134177257D01*
X159042322Y-134174037D01*
X159032176Y-134156452D01*
X159015040Y-134130158D01*
X159006540Y-134117691D01*
X158997329Y-134103622D01*
X158989233Y-134089351D01*
X158982185Y-134073479D01*
X158976117Y-134054609D01*
X158970961Y-134031341D01*
X158966651Y-134002278D01*
X158963119Y-133966021D01*
X158960297Y-133921170D01*
X158958118Y-133866328D01*
X158956514Y-133800097D01*
X158955419Y-133721077D01*
X158954765Y-133627871D01*
X158954484Y-133519079D01*
X158954509Y-133393303D01*
X158954772Y-133249145D01*
X158955206Y-133085207D01*
X158955745Y-132900089D01*
X158956279Y-132721232D01*
X158956805Y-132562374D01*
X158957350Y-132423316D01*
X158957945Y-132302665D01*
X158958619Y-132199028D01*
X158959403Y-132111011D01*
X158960326Y-132037223D01*
X158961419Y-131976269D01*
X158962712Y-131926757D01*
X158964235Y-131887293D01*
X158966019Y-131856484D01*
X158968092Y-131832938D01*
X158970486Y-131815260D01*
X158973230Y-131802059D01*
X158976356Y-131791940D01*
X158979892Y-131783511D01*
X158983791Y-131775375D01*
X159003438Y-131738544D01*
X159022225Y-131708391D01*
X159023272Y-131706908D01*
X159037602Y-131684659D01*
X159043511Y-131671702D01*
X159042504Y-131671249D01*
X159025305Y-131669803D01*
X158988656Y-131668480D01*
X158934962Y-131667316D01*
X158866630Y-131666347D01*
X158786064Y-131665611D01*
X158695670Y-131665142D01*
X158597853Y-131664978D01*
X158152195Y-131664978D01*
X158149120Y-132841845D01*
X158146045Y-134018711D01*
X158119407Y-134077622D01*
X158107485Y-134102183D01*
X158090246Y-134132434D01*
X158077074Y-134149560D01*
X158069076Y-134157591D01*
X158061378Y-134172493D01*
X157769942Y-134172493D01*
X157769474Y-134080029D01*
X157769050Y-133964617D01*
X157768706Y-133834160D01*
X157768434Y-133687716D01*
X157768227Y-133524344D01*
X157768076Y-133343101D01*
X157767972Y-133143048D01*
X157767908Y-132923241D01*
X157767876Y-132682739D01*
X157767867Y-132420602D01*
X157767867Y-130229031D01*
X157806249Y-130190649D01*
X157833355Y-130166911D01*
X157860253Y-130155111D01*
X157896560Y-130152267D01*
X157948489Y-130152267D01*
X157948489Y-130240206D01*
X157950427Y-130290102D01*
X157969199Y-130400523D01*
X158006217Y-130501987D01*
X158059369Y-130593152D01*
X158126546Y-130672673D01*
X158205638Y-130739205D01*
X158294534Y-130791406D01*
X158391125Y-130827930D01*
X158493300Y-130847434D01*
X158598950Y-130848573D01*
X158705964Y-130830005D01*
X158812232Y-130790384D01*
X158909219Y-130732516D01*
X158994293Y-130657684D01*
X159063015Y-130569615D01*
X159113918Y-130470616D01*
X159145535Y-130362993D01*
X159156400Y-130249054D01*
X159156400Y-130152267D01*
X160776753Y-130152267D01*
X160987897Y-130152280D01*
X161192020Y-130152330D01*
X161375686Y-130152430D01*
X161539991Y-130152592D01*
X161686029Y-130152829D01*
X161814894Y-130153153D01*
X161927683Y-130153575D01*
X162025488Y-130154109D01*
X162109404Y-130154767D01*
X162180527Y-130155561D01*
X162239950Y-130156504D01*
X162288768Y-130157608D01*
X162328077Y-130158884D01*
X162358969Y-130160347D01*
X162382541Y-130162007D01*
X162399886Y-130163878D01*
X162412099Y-130165972D01*
X162420275Y-130168300D01*
X162425508Y-130170876D01*
X162431504Y-130174445D01*
X162438279Y-130177978D01*
X162444478Y-130181488D01*
X162450126Y-130185918D01*
X162455247Y-130192208D01*
X162459869Y-130201301D01*
X162464015Y-130214139D01*
X162467713Y-130231662D01*
X162470987Y-130254813D01*
X162473863Y-130284534D01*
X162476367Y-130321765D01*
X162478524Y-130367449D01*
X162480360Y-130422527D01*
X162481900Y-130487941D01*
X162483170Y-130564633D01*
X162484195Y-130653544D01*
X162485001Y-130755617D01*
X162485034Y-130761867D01*
X162485614Y-130871792D01*
G36*
X162485614Y-130871792D02*
G01*
X162486059Y-131003011D01*
X162486362Y-131150216D01*
X162486548Y-131314349D01*
X162486642Y-131496352D01*
X162486671Y-131697165D01*
X162486661Y-131917732D01*
X162486636Y-132158992D01*
X162486622Y-132421889D01*
X162486622Y-132464040D01*
X162486646Y-132724668D01*
X162486685Y-132963796D01*
X162486708Y-133182360D01*
X162486687Y-133381295D01*
X162486593Y-133561535D01*
X162486395Y-133724015D01*
X162486063Y-133869670D01*
X162485569Y-133999434D01*
X162484883Y-134114243D01*
X162483976Y-134215030D01*
X162482817Y-134302730D01*
X162481378Y-134378279D01*
X162479629Y-134442611D01*
X162477540Y-134496661D01*
X162475083Y-134541363D01*
X162472227Y-134577652D01*
X162468943Y-134606463D01*
X162465202Y-134628731D01*
X162460974Y-134645390D01*
X162456229Y-134657375D01*
X162450939Y-134665621D01*
X162445073Y-134671062D01*
X162438602Y-134674634D01*
X162431497Y-134677270D01*
X162423728Y-134679906D01*
X162415266Y-134683477D01*
X162410908Y-134685145D01*
X162402395Y-134687111D01*
X162389694Y-134688911D01*
X162371885Y-134690555D01*
X162348049Y-134692047D01*
X162317266Y-134693397D01*
X162278617Y-134694611D01*
X162231182Y-134695697D01*
X162174043Y-134696661D01*
X162106279Y-134697511D01*
X162026971Y-134698253D01*
X161935199Y-134698897D01*
X161830044Y-134699447D01*
X161710587Y-134699913D01*
X161575908Y-134700300D01*
X161425088Y-134700616D01*
X161257206Y-134700869D01*
X161071345Y-134701066D01*
X160866583Y-134701213D01*
X160642002Y-134701318D01*
X160396682Y-134701389D01*
X160129704Y-134701432D01*
X160091321Y-134701437D01*
X159825922Y-134701480D01*
X159582050Y-134701525D01*
X159358783Y-134701548D01*
X159155196Y-134701524D01*
X158970367Y-134701430D01*
X158803373Y-134701243D01*
X158653290Y-134700939D01*
X158519196Y-134700494D01*
X158400166Y-134699885D01*
X158295279Y-134699089D01*
X158203610Y-134698080D01*
X158124237Y-134696837D01*
X158056237Y-134695335D01*
X157998686Y-134693551D01*
X157950662Y-134691461D01*
X157911240Y-134689042D01*
X157879499Y-134686270D01*
X157854514Y-134683121D01*
X157835364Y-134679572D01*
X157821123Y-134675598D01*
X157810871Y-134671178D01*
X157803682Y-134666286D01*
X157798635Y-134660900D01*
X157794805Y-134654996D01*
X157791271Y-134648549D01*
X157787108Y-134641537D01*
X157786025Y-134639687D01*
X157783813Y-134634180D01*
X157781786Y-134625868D01*
X157779938Y-134613809D01*
X157778261Y-134597063D01*
X157776745Y-134574687D01*
X157775383Y-134545740D01*
X157774167Y-134509280D01*
X157773089Y-134464367D01*
X157772140Y-134410057D01*
X157771312Y-134345410D01*
X157770597Y-134269484D01*
X157769987Y-134181338D01*
X157769942Y-134172493D01*
X158061378Y-134172493D01*
X158065260Y-134173765D01*
X158088520Y-134175791D01*
X158130874Y-134177626D01*
X158190132Y-134179227D01*
X158264107Y-134180549D01*
X158350610Y-134181548D01*
X158447452Y-134182180D01*
X158552445Y-134182400D01*
X159250651Y-134182400D01*
X160405090Y-134182400D01*
X160404456Y-134106200D01*
X160405574Y-134064160D01*
X160411304Y-134028334D01*
X160423890Y-133990772D01*
X160445568Y-133942577D01*
X160448789Y-133935897D01*
X160474188Y-133886359D01*
X160500996Y-133838369D01*
X160523917Y-133801466D01*
X160528485Y-133794834D01*
X160550516Y-133763593D01*
X160582693Y-133718654D01*
X160623457Y-133662147D01*
X160671245Y-133596204D01*
X160724498Y-133522957D01*
X160781655Y-133444536D01*
X160841155Y-133363072D01*
X160901437Y-133280698D01*
X160960940Y-133199544D01*
X161018105Y-133121742D01*
X161071370Y-133049423D01*
X161119174Y-132984718D01*
X161159957Y-132929759D01*
X161192158Y-132886676D01*
X161214216Y-132857602D01*
X161224571Y-132844667D01*
X161229044Y-132840351D01*
X161233236Y-132838312D01*
X161236643Y-132840926D01*
X161239325Y-132849986D01*
X161241341Y-132867285D01*
X161242748Y-132894614D01*
X161243605Y-132933765D01*
X161243970Y-132986533D01*
X161243903Y-133054707D01*
X161243460Y-133140082D01*
X161242702Y-133244449D01*
X161241685Y-133369600D01*
X161241308Y-133414300D01*
X161240169Y-133535395D01*
X161238972Y-133636688D01*
X161237636Y-133720262D01*
X161236077Y-133788204D01*
X161234215Y-133842599D01*
X161231966Y-133885532D01*
X161229248Y-133919089D01*
X161225979Y-133945355D01*
X161222078Y-133966416D01*
X161217461Y-133984357D01*
X161209192Y-134010770D01*
X161185583Y-134072772D01*
X161159685Y-134125573D01*
X161134535Y-134162645D01*
X161133339Y-134164075D01*
X161131168Y-134168424D01*
X161133328Y-134172026D01*
X161141644Y-134174951D01*
X161157940Y-134177269D01*
X161184041Y-134179051D01*
X161221771Y-134180367D01*
X161272956Y-134181286D01*
X161339420Y-134181878D01*
X161422987Y-134182215D01*
X161525483Y-134182365D01*
X161648732Y-134182400D01*
X162180296Y-134182400D01*
X162141523Y-134124783D01*
X162135432Y-134115893D01*
X162124976Y-134101069D01*
X162115579Y-134087422D01*
X162107183Y-134073765D01*
X162099733Y-134058911D01*
X162093173Y-134041670D01*
X162087446Y-134020855D01*
X162082495Y-133995280D01*
X162078266Y-133963755D01*
X162074701Y-133925093D01*
X162071744Y-133878107D01*
X162069340Y-133821608D01*
X162067431Y-133754409D01*
X162065962Y-133675322D01*
X162064876Y-133583160D01*
X162064118Y-133476734D01*
X162063630Y-133354857D01*
X162063358Y-133216341D01*
X162063243Y-133059999D01*
X162063231Y-132884642D01*
X162063265Y-132689082D01*
X162063289Y-132472133D01*
X162063280Y-132349513D01*
X162063243Y-132144447D01*
X162063227Y-131960116D01*
X162063288Y-131795334D01*
X162063484Y-131648916D01*
X162063870Y-131519674D01*
X162064505Y-131406422D01*
X162065444Y-131307975D01*
X162066745Y-131223144D01*
X162068464Y-131150744D01*
X162070659Y-131089589D01*
X162073385Y-131038492D01*
X162076701Y-130996267D01*
X162080662Y-130961727D01*
X162085325Y-130933686D01*
X162090747Y-130910958D01*
X162096986Y-130892356D01*
X162104097Y-130876693D01*
X162112138Y-130862784D01*
X162121166Y-130849441D01*
X162131236Y-130835479D01*
X162142407Y-130819711D01*
X162182197Y-130761867D01*
X161122314Y-130761867D01*
X161160311Y-130824966D01*
X161174993Y-130850005D01*
X161189531Y-130877586D01*
X161201627Y-130905700D01*
X161211532Y-130936551D01*
X161219494Y-130972344D01*
X161225761Y-131015283D01*
X161230582Y-131067574D01*
X161234206Y-131131419D01*
X161236881Y-131209025D01*
X161238857Y-131302594D01*
X161240382Y-131414333D01*
X161241704Y-131546445D01*
X161242613Y-131666434D01*
X161243020Y-131783063D01*
X161242767Y-131878531D01*
X161241857Y-131952556D01*
X161240293Y-132004855D01*
X161238079Y-132035149D01*
X161235220Y-132043156D01*
X161232161Y-132039858D01*
X161214006Y-132018408D01*
X161184275Y-131981889D01*
X161144639Y-131932442D01*
X161096771Y-131872207D01*
X161042343Y-131803327D01*
X160983027Y-131727943D01*
X160920495Y-131648196D01*
X160856421Y-131566228D01*
X160792475Y-131484180D01*
X160730331Y-131404194D01*
X160671661Y-131328411D01*
X160618137Y-131258973D01*
X160571430Y-131198021D01*
X160533214Y-131147696D01*
X160505161Y-131110140D01*
X160488943Y-131087495D01*
X160443635Y-131015212D01*
X160403661Y-130935463D01*
X160382130Y-130867188D01*
X160378827Y-130809844D01*
X160384116Y-130761867D01*
X159252356Y-130762117D01*
X159291867Y-130792722D01*
X159301248Y-130800089D01*
X159364183Y-130854438D01*
X159432997Y-130922259D01*
X159509596Y-131005516D01*
X159595888Y-131106178D01*
X159613052Y-131126847D01*
X159653833Y-131176409D01*
X159703588Y-131237326D01*
X159760955Y-131307898D01*
X159824569Y-131386424D01*
X159893069Y-131471204D01*
X159965090Y-131560537D01*
X160039270Y-131652722D01*
X160054517Y-131671702D01*
X160114246Y-131746060D01*
X160188653Y-131838848D01*
X160261131Y-131929388D01*
X160330314Y-132015978D01*
X160394841Y-132096918D01*
X160453347Y-132170506D01*
X160504470Y-132235044D01*
X160546847Y-132288829D01*
X160579115Y-132330162D01*
X160599910Y-132357342D01*
X160607869Y-132368668D01*
X160606111Y-132372771D01*
X160593230Y-132393334D01*
X160568885Y-132429561D01*
X160534247Y-132479824D01*
X160490486Y-132542492D01*
X160438775Y-132615936D01*
X160380284Y-132698527D01*
X160316184Y-132788636D01*
X160247646Y-132884631D01*
X160175843Y-132984885D01*
X160101944Y-133087768D01*
X160027121Y-133191650D01*
X159952545Y-133294901D01*
X159879387Y-133395892D01*
X159808819Y-133492994D01*
X159742011Y-133584577D01*
X159680135Y-133669011D01*
X159624361Y-133744667D01*
X159575862Y-133809916D01*
X159535807Y-133863128D01*
X159505369Y-133902673D01*
X159484944Y-133928026D01*
X159438899Y-133982295D01*
X159388612Y-134038775D01*
X159341815Y-134088669D01*
X159250651Y-134182400D01*
X158552445Y-134182400D01*
X158621356Y-134182349D01*
X158719607Y-134182091D01*
X158809030Y-134181637D01*
X158887333Y-134181010D01*
X158952223Y-134180235D01*
X159001411Y-134179335D01*
X159032604Y-134178334D01*
X159043511Y-134177257D01*
X159042322Y-134174037D01*
X159032176Y-134156452D01*
X159015040Y-134130158D01*
X159006540Y-134117691D01*
X158997329Y-134103622D01*
X158989233Y-134089351D01*
X158982185Y-134073479D01*
X158976117Y-134054609D01*
X158970961Y-134031341D01*
X158966651Y-134002278D01*
X158963119Y-133966021D01*
X158960297Y-133921170D01*
X158958118Y-133866328D01*
X158956514Y-133800097D01*
X158955419Y-133721077D01*
X158954765Y-133627871D01*
X158954484Y-133519079D01*
X158954509Y-133393303D01*
X158954772Y-133249145D01*
X158955206Y-133085207D01*
X158955745Y-132900089D01*
X158956279Y-132721232D01*
X158956805Y-132562374D01*
X158957350Y-132423316D01*
X158957945Y-132302665D01*
X158958619Y-132199028D01*
X158959403Y-132111011D01*
X158960326Y-132037223D01*
X158961419Y-131976269D01*
X158962712Y-131926757D01*
X158964235Y-131887293D01*
X158966019Y-131856484D01*
X158968092Y-131832938D01*
X158970486Y-131815260D01*
X158973230Y-131802059D01*
X158976356Y-131791940D01*
X158979892Y-131783511D01*
X158983791Y-131775375D01*
X159003438Y-131738544D01*
X159022225Y-131708391D01*
X159023272Y-131706908D01*
X159037602Y-131684659D01*
X159043511Y-131671702D01*
X159042504Y-131671249D01*
X159025305Y-131669803D01*
X158988656Y-131668480D01*
X158934962Y-131667316D01*
X158866630Y-131666347D01*
X158786064Y-131665611D01*
X158695670Y-131665142D01*
X158597853Y-131664978D01*
X158152195Y-131664978D01*
X158149120Y-132841845D01*
X158146045Y-134018711D01*
X158119407Y-134077622D01*
X158107485Y-134102183D01*
X158090246Y-134132434D01*
X158077074Y-134149560D01*
X158069076Y-134157591D01*
X158061378Y-134172493D01*
X157769942Y-134172493D01*
X157769474Y-134080029D01*
X157769050Y-133964617D01*
X157768706Y-133834160D01*
X157768434Y-133687716D01*
X157768227Y-133524344D01*
X157768076Y-133343101D01*
X157767972Y-133143048D01*
X157767908Y-132923241D01*
X157767876Y-132682739D01*
X157767867Y-132420602D01*
X157767867Y-130229031D01*
X157806249Y-130190649D01*
X157833355Y-130166911D01*
X157860253Y-130155111D01*
X157896560Y-130152267D01*
X157948489Y-130152267D01*
X157948489Y-130240206D01*
X157950427Y-130290102D01*
X157969199Y-130400523D01*
X158006217Y-130501987D01*
X158059369Y-130593152D01*
X158126546Y-130672673D01*
X158205638Y-130739205D01*
X158294534Y-130791406D01*
X158391125Y-130827930D01*
X158493300Y-130847434D01*
X158598950Y-130848573D01*
X158705964Y-130830005D01*
X158812232Y-130790384D01*
X158909219Y-130732516D01*
X158994293Y-130657684D01*
X159063015Y-130569615D01*
X159113918Y-130470616D01*
X159145535Y-130362993D01*
X159156400Y-130249054D01*
X159156400Y-130152267D01*
X160776753Y-130152267D01*
X160987897Y-130152280D01*
X161192020Y-130152330D01*
X161375686Y-130152430D01*
X161539991Y-130152592D01*
X161686029Y-130152829D01*
X161814894Y-130153153D01*
X161927683Y-130153575D01*
X162025488Y-130154109D01*
X162109404Y-130154767D01*
X162180527Y-130155561D01*
X162239950Y-130156504D01*
X162288768Y-130157608D01*
X162328077Y-130158884D01*
X162358969Y-130160347D01*
X162382541Y-130162007D01*
X162399886Y-130163878D01*
X162412099Y-130165972D01*
X162420275Y-130168300D01*
X162425508Y-130170876D01*
X162431504Y-130174445D01*
X162438279Y-130177978D01*
X162444478Y-130181488D01*
X162450126Y-130185918D01*
X162455247Y-130192208D01*
X162459869Y-130201301D01*
X162464015Y-130214139D01*
X162467713Y-130231662D01*
X162470987Y-130254813D01*
X162473863Y-130284534D01*
X162476367Y-130321765D01*
X162478524Y-130367449D01*
X162480360Y-130422527D01*
X162481900Y-130487941D01*
X162483170Y-130564633D01*
X162484195Y-130653544D01*
X162485001Y-130755617D01*
X162485034Y-130761867D01*
X162485614Y-130871792D01*
G37*
%TD*%
M02*
