%TF.GenerationSoftware,KiCad,Pcbnew,8.0.8*%
%TF.CreationDate,2025-02-25T13:10:29+05:30*%
%TF.ProjectId,led_torch,6c65645f-746f-4726-9368-2e6b69636164,rev?*%
%TF.SameCoordinates,Original*%
%TF.FileFunction,Copper,L1,Top*%
%TF.FilePolarity,Positive*%
%FSLAX46Y46*%
G04 Gerber Fmt 4.6, Leading zero omitted, Abs format (unit mm)*
G04 Created by KiCad (PCBNEW 8.0.8) date 2025-02-25 13:10:29*
%MOMM*%
%LPD*%
G01*
G04 APERTURE LIST*
%TA.AperFunction,ComponentPad*%
%ADD10C,1.700000*%
%TD*%
%TA.AperFunction,ComponentPad*%
%ADD11R,1.700000X1.700000*%
%TD*%
%TA.AperFunction,ComponentPad*%
%ADD12C,1.400000*%
%TD*%
%TA.AperFunction,ComponentPad*%
%ADD13O,1.400000X1.400000*%
%TD*%
%TA.AperFunction,ComponentPad*%
%ADD14C,1.800000*%
%TD*%
%TA.AperFunction,ComponentPad*%
%ADD15R,1.800000X1.800000*%
%TD*%
%TA.AperFunction,SMDPad,CuDef*%
%ADD16R,2.540000X3.510000*%
%TD*%
%TA.AperFunction,Conductor*%
%ADD17C,0.200000*%
%TD*%
G04 APERTURE END LIST*
D10*
%TO.P,SW1,2,B*%
%TO.N,/bat_pos*%
X137870000Y-139346500D03*
X131370000Y-139346500D03*
%TO.P,SW1,1,A*%
%TO.N,Net-(SW1A-A)*%
X137870000Y-134846500D03*
D11*
X131370000Y-134846500D03*
%TD*%
D12*
%TO.P,R1,1*%
%TO.N,/LED_anode*%
X125730000Y-140906500D03*
D13*
%TO.P,R1,2*%
%TO.N,Net-(SW1A-A)*%
X125730000Y-133286500D03*
%TD*%
D14*
%TO.P,D1,2,A*%
%TO.N,/LED_anode*%
X114300000Y-138361500D03*
D15*
%TO.P,D1,1,K*%
%TO.N,/LED_cathode*%
X114300000Y-135821500D03*
%TD*%
D16*
%TO.P,BT1,2,-*%
%TO.N,/LED_cathode*%
X141530000Y-137096500D03*
%TO.P,BT1,1,+*%
%TO.N,/bat_pos*%
X170890000Y-137096500D03*
%TD*%
D17*
%TO.N,/bat_pos*%
X168148000Y-139954000D02*
X170890000Y-137212000D01*
X142905000Y-139346500D02*
X143512500Y-139954000D01*
X170890000Y-137212000D02*
X170890000Y-137096500D01*
X143512500Y-139954000D02*
X168148000Y-139954000D01*
X137870000Y-139346500D02*
X142905000Y-139346500D01*
X131370000Y-139346500D02*
X137870000Y-139346500D01*
%TO.N,Net-(SW1A-A)*%
X131370000Y-134846500D02*
X137870000Y-134846500D01*
X129810000Y-133286500D02*
X131370000Y-134846500D01*
X125730000Y-133286500D02*
X129810000Y-133286500D01*
%TO.N,/LED_anode*%
X116845000Y-140906500D02*
X125730000Y-140906500D01*
X114300000Y-138361500D02*
X116845000Y-140906500D01*
%TO.N,/LED_cathode*%
X121706741Y-139034097D02*
X123644338Y-137096500D01*
X117512597Y-139034097D02*
X121706741Y-139034097D01*
X114300000Y-135821500D02*
X117512597Y-139034097D01*
X123644338Y-137096500D02*
X141530000Y-137096500D01*
%TD*%
M02*
